<svg width="62" height="65" viewBox="0 0 62 65" fill="none" xmlns="http://www.w3.org/2000/svg">
<path fill-rule="evenodd" clip-rule="evenodd" d="M27.2572 2.10876L22.1398 5.82684H15.8145C13.0898 5.82684 10.675 7.58123 9.83316 10.1725L7.87839 16.1883L2.76117 19.9064C0.556758 21.5078 -0.365539 24.3466 0.476522 26.9378L2.43108 32.9537L0.476522 38.9695C-0.365539 41.5607 0.556758 44.3993 2.76117 46.0009L7.87839 49.7188L9.83316 55.7346C10.675 58.3259 13.0898 60.0805 15.8145 60.0805H22.1398L27.2572 63.7984C29.4615 65.4 32.4462 65.4 34.6506 63.7984L39.7678 60.0805H46.0934C48.8179 60.0805 51.2326 58.3259 52.0747 55.7346L54.0292 49.7188L59.1467 46.0009C61.3509 44.3993 62.2732 41.5607 61.4313 38.9695L59.4766 32.9537L61.4313 26.9378C62.2732 24.3466 61.3509 21.5078 59.1467 19.9064L54.0292 16.1883L52.0747 10.1725C51.2326 7.58123 48.8179 5.82684 46.0934 5.82684H39.7678L34.6506 2.10876C32.4462 0.507367 29.4615 0.507367 27.2572 2.10876ZM28.2754 3.51019C29.8726 2.34988 32.0352 2.34988 33.6323 3.51019C36.0562 5.27122 38.9773 7.39373 38.9773 7.39373C39.1253 7.5012 39.3037 7.55898 39.4866 7.55898H46.0934C48.0675 7.55898 49.8171 8.83029 50.4271 10.7077C51.353 13.5574 52.4688 16.9913 52.4688 16.9913C52.5253 17.1653 52.6355 17.3168 52.7835 17.4243C52.7835 17.4243 55.7046 19.5466 58.1286 21.3078C59.7256 22.4681 60.3939 24.5249 59.7838 26.4026C58.858 29.252 57.7423 32.6859 57.7423 32.6859C57.6858 32.8599 57.6858 33.0474 57.7423 33.2212C57.7423 33.2212 58.858 36.6553 59.7838 39.5047C60.3939 41.3824 59.7256 43.4392 58.1286 44.5995C55.7046 46.3606 52.7835 48.4829 52.7835 48.4829C52.6355 48.5903 52.5253 48.7421 52.4688 48.916C52.4688 48.916 51.353 52.35 50.4271 55.1994C49.8171 57.077 48.0675 58.3481 46.0934 58.3481C43.0972 58.3481 39.4866 58.3481 39.4866 58.3481C39.3037 58.3481 39.1253 58.4061 38.9773 58.5136C38.9773 58.5136 36.0562 60.6359 33.6323 62.3969C32.0352 63.5574 29.8726 63.5574 28.2754 62.3969C25.8515 60.6359 22.9303 58.5136 22.9303 58.5136C22.7823 58.4061 22.6042 58.3481 22.4213 58.3481C22.4213 58.3481 18.8106 58.3481 15.8145 58.3481C13.8402 58.3481 12.0906 57.077 11.4805 55.1994C10.5547 52.35 9.43884 48.916 9.43884 48.916C9.38251 48.7421 9.27234 48.5903 9.12434 48.4829C9.12434 48.4829 6.20321 46.3606 3.77929 44.5995C2.18206 43.4392 1.51377 41.3824 2.12385 39.5047C3.04969 36.6553 4.16551 33.2212 4.16551 33.2212C4.22204 33.0474 4.22204 32.8599 4.16551 32.6859C4.16551 32.6859 3.04969 29.252 2.12385 26.4026C1.51377 24.5249 2.18206 22.4681 3.77929 21.3078C6.20321 19.5466 9.12434 17.4243 9.12434 17.4243C9.27234 17.3168 9.38251 17.1653 9.43884 16.9913C9.43884 16.9913 10.5547 13.5574 11.4805 10.7077C12.0906 8.83029 13.8402 7.55898 15.8145 7.55898H22.4213C22.6042 7.55898 22.7823 7.5012 22.9303 7.39373L28.2754 3.51019Z" fill="#899F87"/>
<path fill-rule="evenodd" clip-rule="evenodd" d="M22.2719 25.0886C23.7045 29.4155 27.9083 32.3335 32.9534 31.0402C36.7414 30.0692 39.237 27.4035 40.849 24.5311C43.1966 20.3478 43.6473 15.7546 43.6473 15.7546C43.6784 15.4384 43.534 15.1306 43.2708 14.9526C43.0077 14.7745 42.6682 14.7547 42.3861 14.9011C39.3688 16.468 36.8295 16.1294 34.3538 15.7831C32.5107 15.5249 30.6968 15.2615 28.7745 15.5744C25.6382 16.0847 23.5723 18.3304 22.6323 20.6673C21.9858 22.2745 21.885 23.9204 22.2717 25.0886H22.2719ZM23.9161 24.5442C23.6332 23.689 23.7662 22.4898 24.2393 21.3137C24.9789 19.4754 26.5853 17.6854 29.0526 17.284C31.2633 16.9242 33.3157 17.4312 35.4626 17.6734C37.4155 17.8937 39.4365 17.922 41.6817 17.1024C41.3713 18.6807 40.7002 21.2566 39.3384 23.6834C37.9409 26.1734 35.8072 28.5204 32.5234 29.3623C28.4536 30.4055 25.0718 28.0344 23.9163 24.5442H23.9161Z" fill="#899F87"/>
<path fill-rule="evenodd" clip-rule="evenodd" d="M15.4974 23.9383C18.3378 25.037 20.9509 25.5554 23.321 25.6779C29.1639 25.9803 33.5434 23.8809 36.244 22.0346C36.6385 21.7648 36.7399 21.2254 36.4701 20.8309C36.2003 20.4361 35.6609 20.3349 35.2664 20.6047C32.7886 22.2986 28.771 24.2253 23.4104 23.948C21.2024 23.8339 18.7688 23.3463 16.1222 22.3227C15.6766 22.1502 15.1746 22.3722 15.002 22.8181C14.8297 23.2639 15.0515 23.7659 15.4974 23.9383Z" fill="#899F87"/>
<path fill-rule="evenodd" clip-rule="evenodd" d="M11.6827 40.4318L14.1824 39.1294V48.4889C14.1824 48.967 14.5705 49.3551 15.0484 49.3551C15.5265 49.3551 15.9146 48.967 15.9146 48.4889V37.7015C15.9146 37.3989 15.7566 37.1181 15.4976 36.9611C15.2388 36.804 14.9168 36.7936 14.6483 36.9335L10.8822 38.8955C10.4583 39.1165 10.2935 39.6399 10.5142 40.0637C10.7352 40.4878 11.2586 40.6526 11.6827 40.4318Z" fill="#899F87"/>
<path fill-rule="evenodd" clip-rule="evenodd" d="M48.5254 37.6383L40.685 47.4818C40.3873 47.8557 40.449 48.4012 40.823 48.699C41.1967 48.9967 41.7422 48.935 42.04 48.561L49.8803 38.7176C50.1782 38.3436 50.1164 37.7984 49.7425 37.5005C49.3685 37.2026 48.8231 37.2646 48.5254 37.6383Z" fill="#899F87"/>
<path fill-rule="evenodd" clip-rule="evenodd" d="M41.949 36.7808C40.8575 36.7808 39.9712 37.6671 39.9712 38.7586C39.9712 39.8501 40.8575 40.7364 41.949 40.7364C43.0405 40.7364 43.9269 39.8501 43.9269 38.7586C43.9269 37.6671 43.0405 36.7808 41.949 36.7808ZM41.949 38.5131C42.0846 38.5131 42.1945 38.6231 42.1945 38.7586C42.1945 38.8941 42.0846 39.0041 41.949 39.0041C41.8135 39.0041 41.7035 38.8941 41.7035 38.7586C41.7035 38.6231 41.8135 38.5131 41.949 38.5131Z" fill="#899F87"/>
<path fill-rule="evenodd" clip-rule="evenodd" d="M48.4288 45.2837C47.3373 45.2837 46.4509 46.1698 46.4509 47.2613C46.4509 48.353 47.3373 49.2392 48.4288 49.2392C49.5203 49.2392 50.4066 48.353 50.4066 47.2613C50.4066 46.1698 49.5203 45.2837 48.4288 45.2837ZM48.4288 47.0158C48.5643 47.0158 48.6743 47.1258 48.6743 47.2613C48.6743 47.3968 48.5643 47.507 48.4288 47.507C48.2932 47.507 48.1833 47.3968 48.1833 47.2613C48.1833 47.1258 48.2932 47.0158 48.4288 47.0158Z" fill="#899F87"/>
<path fill-rule="evenodd" clip-rule="evenodd" d="M26.4302 45.3193V40.8714C26.4302 38.6424 24.6232 36.8354 22.3943 36.8354C22.3943 36.8354 22.3943 36.8354 22.3941 36.8354C20.1654 36.8354 18.3584 38.6424 18.3584 40.8714V45.3193C18.3584 47.5482 20.1654 49.3552 22.3941 49.3552H22.3943C24.6232 49.3552 26.4302 47.5482 26.4302 45.3193ZM24.6979 40.8714V45.3193C24.6979 46.5916 23.6667 47.623 22.3943 47.623H22.3941C21.122 47.623 20.0905 46.5916 20.0905 45.3195C20.0905 45.3193 20.0905 40.8714 20.0905 40.8714C20.0905 39.599 21.122 38.5678 22.3941 38.5678H22.3943C23.6667 38.5678 24.6979 39.599 24.6979 40.8714Z" fill="#899F87"/>
<path fill-rule="evenodd" clip-rule="evenodd" d="M36.9454 45.3193V40.8714C36.9454 38.6424 35.1386 36.8354 32.9097 36.8354H32.9094C30.6805 36.8354 28.8737 38.6424 28.8735 40.8714V45.3193C28.8737 47.5482 30.6805 49.3552 32.9094 49.3552H32.9097C35.1386 49.3552 36.9454 47.5482 36.9454 45.3193ZM35.2132 40.8714V45.3193C35.2132 46.5916 34.1818 47.623 32.9097 47.623H32.9094C31.6373 47.623 30.6059 46.5916 30.6059 45.3195C30.6059 45.3193 30.6059 40.8714 30.6059 40.8714C30.6059 39.599 31.6373 38.5678 32.9094 38.5678H32.9097C34.1818 38.5678 35.2132 39.599 35.2132 40.8714Z" fill="#899F87"/>
</svg>
