<svg width="74" height="74" viewBox="0 0 74 74" fill="none" xmlns="http://www.w3.org/2000/svg">
<g clip-path="url(#clip0_4602_58448)">
<path fill-rule="evenodd" clip-rule="evenodd" d="M20.1142 31.2578C16.1741 31.2578 12.9697 34.4622 12.9697 38.4019L12.9699 65.2402C12.9699 69.18 16.1741 72.3843 20.1138 72.3843H37.0111C40.9506 72.3843 44.155 69.18 44.155 65.2402L44.1553 38.4019C44.1553 34.4622 40.9506 31.2578 37.0109 31.2578H20.1142ZM37.0111 74.0001H20.1142C15.2838 74.0001 11.354 70.0702 11.354 65.2402V38.4019C11.354 33.5718 15.2838 29.6421 20.1138 29.6421H37.0111C41.8409 29.6421 45.7707 33.5718 45.7707 38.4019V65.2402C45.7707 70.0702 41.8409 74.0001 37.0111 74.0001Z" fill="#899F87"/>
<path fill-rule="evenodd" clip-rule="evenodd" d="M20.8833 45.9403C19.8078 45.9403 18.9325 46.8155 18.9325 47.8908L18.9328 55.752C18.9328 56.8273 19.8077 57.7025 20.8831 57.7025H36.242C37.3174 57.7025 38.1923 56.8273 38.1923 55.752L38.1926 47.8908C38.1926 46.8153 37.3172 45.9403 36.2418 45.9403H20.8833ZM36.242 59.3181H20.8833C18.9176 59.3181 17.3169 57.7177 17.3169 55.752L17.3171 47.8908C17.3171 45.9251 18.9174 44.3247 20.8831 44.3247H36.242C38.2076 44.3247 39.808 45.9251 39.808 47.8908L39.8084 55.752C39.8084 57.7177 38.2075 59.3181 36.242 59.3181Z" fill="#899F87"/>
<path fill-rule="evenodd" clip-rule="evenodd" d="M35.3667 31.2579C34.9207 31.2579 34.5586 30.896 34.5586 30.4499V15.8301H22.5644V30.4499C22.5644 30.896 22.204 31.2579 21.7564 31.2579C21.3107 31.2579 20.9485 30.896 20.9485 30.4499L20.9487 15.0223C20.9487 14.5763 21.3104 14.2144 21.7564 14.2144H35.3667C35.8143 14.2144 36.1743 14.5763 36.1743 15.0223L36.1745 30.4499C36.1745 30.896 35.8141 31.2579 35.3667 31.2579Z" fill="#899F87"/>
<path fill-rule="evenodd" clip-rule="evenodd" d="M35.3683 20.9736H21.7568C21.3107 20.9736 20.9485 20.6118 20.9485 20.1657C20.9487 19.7181 21.3104 19.3579 21.7564 19.3579H35.3683C35.8143 19.3579 36.176 19.7181 36.176 20.1657C36.176 20.6118 35.8141 20.9736 35.3683 20.9736Z" fill="#899F87"/>
<path fill-rule="evenodd" clip-rule="evenodd" d="M35.3683 26.1146H21.7568C21.3107 26.1146 20.9485 25.7529 20.9485 25.3068C20.9487 24.8608 21.3104 24.499 21.7564 24.499H35.3683C35.8143 24.499 36.176 24.8608 36.176 25.3068C36.176 25.7529 35.8141 26.1146 35.3683 26.1146Z" fill="#899F87"/>
<path fill-rule="evenodd" clip-rule="evenodd" d="M44.559 17.6664C44.2023 17.6681 43.8757 17.4291 43.7781 17.0689L40.7927 5.92431C40.4191 4.52912 40.4928 3.23653 41.0061 2.18652C41.5061 1.16654 42.3964 0.439503 43.5138 0.140084C44.6331 -0.159677 45.7673 0.0255394 46.7098 0.658349C47.6792 1.3096 48.3894 2.39341 48.763 3.7886L51.7487 14.9332C51.865 15.3641 51.6089 15.8067 51.178 15.9211C50.7475 16.0373 50.3045 15.7814 50.1884 15.3506L47.2028 4.20598C46.932 3.19283 46.4489 2.43046 45.8076 1.99976C45.2508 1.62438 44.6027 1.52178 43.9329 1.70188C43.2632 1.88027 42.7531 2.29423 42.457 2.89666C42.1188 3.59007 42.0816 4.49208 42.3542 5.50523L45.3399 16.6498C45.4546 17.0807 45.1985 17.5233 44.7676 17.6394C44.6987 17.6578 44.6278 17.6664 44.559 17.6664Z" fill="#899F87"/>
<path fill-rule="evenodd" clip-rule="evenodd" d="M44.2493 16.9426H44.2512H44.2493ZM52.2805 15.7343C52.0214 15.7343 51.7537 15.768 51.4878 15.8386L44.4584 17.7219C43.189 18.0634 42.3307 19.1524 42.5849 20.1017L43.9014 25.0158L55.6161 21.8755L54.3003 16.9612C54.0999 16.2123 53.2532 15.7343 52.2805 15.7343ZM43.3307 26.8117C43.189 26.8117 43.0494 26.7763 42.9265 26.7039C42.7399 26.5962 42.605 26.4211 42.5495 26.2142L41.0231 20.5191C40.5354 18.693 41.8881 16.7391 44.0407 16.1618L51.0687 14.2785C53.223 13.7012 55.372 14.7178 55.8618 16.5438L57.3867 22.2374C57.5026 22.6681 57.2469 23.1124 56.816 23.2268L43.5393 26.7847C43.4703 26.8031 43.3993 26.8117 43.3307 26.8117Z" fill="#899F87"/>
<path fill-rule="evenodd" clip-rule="evenodd" d="M58.4167 56.5632C58.1674 56.5632 57.9284 56.4487 57.7736 56.245L53.5947 50.7536C53.536 50.6745 53.4921 50.5869 53.4634 50.4944L45.9827 25.3155C45.8549 24.8881 46.0988 24.4388 46.5263 24.3124C46.9556 24.1846 47.4049 24.4287 47.531 24.8561L54.9701 49.8918L57.8646 53.697L58.4689 48.9545L52.3933 23.5535C52.2905 23.1192 52.558 22.6834 52.9906 22.5791C53.425 22.4763 53.8607 22.744 53.965 23.1783L60.0746 48.7221C60.098 48.8165 60.1027 48.9157 60.091 49.0117L59.2176 55.858C59.1755 56.1829 58.9416 56.4521 58.6251 56.5362C58.5563 56.5547 58.4855 56.5632 58.4167 56.5632Z" fill="#899F87"/>
<path fill-rule="evenodd" clip-rule="evenodd" d="M58.4083 63.729C58.3644 63.8164 58.3188 63.9057 58.2734 63.9965C57.4151 65.7013 55.6293 69.249 55.8111 70.2251H55.8115C56.0455 71.4772 57.1408 72.3843 58.4165 72.3843C59.7075 72.3843 60.8045 71.4639 61.0266 70.1948C61.1734 69.3517 59.4313 65.809 58.5949 64.1059C58.531 63.978 58.4685 63.8517 58.4083 63.729ZM58.4166 74.0001C56.3635 74.0001 54.6012 72.5374 54.2241 70.5229H54.2244C53.9615 69.1211 55.1935 66.5226 56.8311 63.2694C57.1879 62.5608 57.4958 61.9466 57.6759 61.5376C57.8055 61.2449 58.095 61.0547 58.4165 61.0547C58.7362 61.0547 59.0272 61.2449 59.1553 61.5376C59.3572 61.9972 59.6753 62.6435 60.0438 63.3939C61.6898 66.7414 62.8391 69.2087 62.6187 70.4726C62.2604 72.5173 60.4931 74.0001 58.4166 74.0001Z" fill="#899F87"/>
</g>
<defs>
<clipPath id="clip0_4602_58448">
<rect width="74" height="74" fill="white"/>
</clipPath>
</defs>
</svg>
