<svg width="74" height="74" viewBox="0 0 74 74" fill="none" xmlns="http://www.w3.org/2000/svg">
<path d="M73.1328 42.5825H0.867188C0.637195 42.5825 0.416623 42.4912 0.253993 42.3285C0.0913641 42.1659 0 41.9453 0 41.7153C0 41.4853 0.0913641 41.2648 0.253993 41.1021C0.416623 40.9395 0.637195 40.8481 0.867188 40.8481H73.1328C73.3628 40.8481 73.5834 40.9395 73.746 41.1021C73.9086 41.2648 74 41.4853 74 41.7153C74 41.9453 73.9086 42.1659 73.746 42.3285C73.5834 42.4912 73.3628 42.5825 73.1328 42.5825Z" fill="#899F87"/>
<path d="M73.1328 51.8325H0.867188C0.637195 51.8325 0.416623 51.7412 0.253993 51.5785C0.0913641 51.4159 0 51.1953 0 50.9653C0 50.7353 0.0913641 50.5148 0.253993 50.3521C0.416623 50.1895 0.637195 50.0981 0.867188 50.0981H73.1328C73.3628 50.0981 73.5834 50.1895 73.746 50.3521C73.9086 50.5148 74 50.7353 74 50.9653C74 51.1953 73.9086 51.4159 73.746 51.5785C73.5834 51.7412 73.3628 51.8325 73.1328 51.8325Z" fill="#899F87"/>
<path d="M9.23609 64.1382C8.55003 64.1382 7.87938 63.9347 7.30895 63.5536C6.73852 63.1724 6.29392 62.6307 6.03138 61.9969C5.76884 61.363 5.70014 60.6656 5.83399 59.9927C5.96783 59.3198 6.2982 58.7018 6.78331 58.2167C7.26842 57.7315 7.88649 57.4012 8.55937 57.2673C9.23224 57.1335 9.92969 57.2022 10.5635 57.4647C11.1973 57.7273 11.7391 58.1719 12.1202 58.7423C12.5014 59.3127 12.7048 59.9834 12.7048 60.6694C12.704 61.5891 12.3383 62.4709 11.6879 63.1213C11.0376 63.7716 10.1558 64.1373 9.23609 64.1382ZM9.23609 58.9368C8.89306 58.9368 8.55773 59.0385 8.27252 59.2291C7.9873 59.4197 7.765 59.6905 7.63373 60.0075C7.50246 60.3244 7.46811 60.6731 7.53504 61.0095C7.60196 61.346 7.76714 61.655 8.0097 61.8976C8.25225 62.1401 8.56129 62.3053 8.89773 62.3722C9.23416 62.4391 9.58289 62.4048 9.8998 62.2735C10.2167 62.1423 10.4876 61.92 10.6782 61.6347C10.8687 61.3495 10.9705 61.0142 10.9705 60.6712C10.9705 60.2112 10.7877 59.77 10.4625 59.4448C10.1372 59.1195 9.69607 58.9368 9.23609 58.9368Z" fill="#899F87"/>
<path d="M18.5 72.9336C17.8139 72.9336 17.1433 72.7302 16.5729 72.349C16.0024 71.9679 15.5578 71.4261 15.2953 70.7923C15.0328 70.1584 14.9641 69.461 15.0979 68.7881C15.2317 68.1153 15.5621 67.4972 16.0472 67.0121C16.5323 66.527 17.1504 66.1966 17.8233 66.0627C18.4962 65.9289 19.1936 65.9976 19.8274 66.2601C20.4613 66.5227 21.003 66.9673 21.3842 67.5377C21.7653 68.1081 21.9688 68.7788 21.9688 69.4648C21.9679 70.3846 21.6022 71.2664 20.9518 71.9167C20.3015 72.567 19.4197 72.9328 18.5 72.9336ZM18.5 67.7305C18.157 67.7305 17.8217 67.8322 17.5364 68.0228C17.2512 68.2133 17.0289 68.4842 16.8976 68.8011C16.7664 69.118 16.732 69.4668 16.799 69.8032C16.8659 70.1396 17.0311 70.4487 17.2736 70.6912C17.5162 70.9338 17.8252 71.099 18.1616 71.1659C18.4981 71.2328 18.8468 71.1985 19.1637 71.0672C19.4806 70.9359 19.7515 70.7136 19.9421 70.4284C20.1327 70.1432 20.2344 69.8079 20.2344 69.4648C20.234 69.0051 20.0511 68.5643 19.7259 68.2394C19.4007 67.9144 18.9597 67.7319 18.5 67.7319V67.7305Z" fill="#899F87"/>
<path d="M37 72.9336C36.3139 72.9336 35.6433 72.7302 35.0729 72.349C34.5024 71.9679 34.0578 71.4261 33.7953 70.7923C33.5328 70.1584 33.4641 69.461 33.5979 68.7881C33.7317 68.1153 34.0621 67.4972 34.5472 67.0121C35.0323 66.527 35.6504 66.1966 36.3233 66.0627C36.9962 65.9289 37.6936 65.9976 38.3274 66.2601C38.9613 66.5227 39.503 66.9673 39.8842 67.5377C40.2653 68.1081 40.4688 68.7788 40.4688 69.4648C40.4679 70.3846 40.1022 71.2664 39.4519 71.9167C38.8015 72.567 37.9197 72.9328 37 72.9336ZM37 67.7305C36.657 67.7305 36.3217 67.8322 36.0364 68.0228C35.7512 68.2133 35.5289 68.4842 35.3976 68.8011C35.2664 69.118 35.232 69.4668 35.299 69.8032C35.3659 70.1396 35.5311 70.4487 35.7736 70.6912C36.0162 70.9338 36.3252 71.099 36.6616 71.1659C36.9981 71.2328 37.3468 71.1985 37.6637 71.0672C37.9806 70.9359 38.2515 70.7136 38.4421 70.4284C38.6327 70.1432 38.7344 69.8079 38.7344 69.4648C38.734 69.0051 38.5511 68.5643 38.2259 68.2394C37.9007 67.9144 37.4597 67.7319 37 67.7319V67.7305Z" fill="#899F87"/>
<path d="M55.5 72.9336C54.8139 72.9336 54.1433 72.7302 53.5729 72.349C53.0024 71.9679 52.5578 71.4261 52.2953 70.7923C52.0328 70.1584 51.9641 69.461 52.0979 68.7881C52.2317 68.1153 52.5621 67.4972 53.0472 67.0121C53.5323 66.527 54.1504 66.1966 54.8233 66.0627C55.4962 65.9289 56.1936 65.9976 56.8274 66.2601C57.4613 66.5227 58.003 66.9673 58.3842 67.5377C58.7653 68.1081 58.9688 68.7788 58.9688 69.4648C58.9679 70.3846 58.6022 71.2664 57.9518 71.9167C57.3015 72.567 56.4197 72.9328 55.5 72.9336ZM55.5 67.7305C55.157 67.7305 54.8217 67.8322 54.5364 68.0228C54.2512 68.2133 54.0289 68.4842 53.8976 68.8011C53.7664 69.118 53.732 69.4668 53.799 69.8032C53.8659 70.1396 54.0311 70.4487 54.2736 70.6912C54.5162 70.9338 54.8252 71.099 55.1616 71.1659C55.4981 71.2328 55.8468 71.1985 56.1637 71.0672C56.4806 70.9359 56.7515 70.7136 56.9421 70.4284C57.1327 70.1432 57.2344 69.8079 57.2344 69.4648C57.234 69.0051 57.0511 68.5643 56.7259 68.2394C56.4007 67.9144 55.9597 67.7319 55.5 67.7319V67.7305Z" fill="#899F87"/>
<path d="M27.75 64.1382C27.0639 64.1382 26.3933 63.9347 25.8229 63.5536C25.2524 63.1724 24.8078 62.6307 24.5453 61.9969C24.2828 61.363 24.2141 60.6656 24.3479 59.9927C24.4817 59.3198 24.8121 58.7018 25.2972 58.2167C25.7823 57.7315 26.4004 57.4012 27.0733 57.2673C27.7462 57.1335 28.4436 57.2022 29.0774 57.4647C29.7113 57.7273 30.253 58.1719 30.6342 58.7423C31.0153 59.3127 31.2188 59.9834 31.2188 60.6694C31.2179 61.5891 30.8522 62.4709 30.2018 63.1213C29.5515 63.7716 28.6697 64.1373 27.75 64.1382ZM27.75 58.9368C27.407 58.9368 27.0717 59.0385 26.7864 59.2291C26.5012 59.4197 26.2789 59.6905 26.1476 60.0075C26.0164 60.3244 25.982 60.6731 26.049 61.0095C26.1159 61.346 26.2811 61.655 26.5236 61.8976C26.7662 62.1401 27.0752 62.3053 27.4116 62.3722C27.7481 62.4391 28.0968 62.4048 28.4137 62.2735C28.7306 62.1423 29.0015 61.92 29.1921 61.6347C29.3827 61.3495 29.4844 61.0142 29.4844 60.6712C29.4844 60.2112 29.3016 59.77 28.9764 59.4448C28.6511 59.1195 28.21 58.9368 27.75 58.9368Z" fill="#899F87"/>
<path d="M46.2639 64.1382C45.5779 64.1382 44.9072 63.9347 44.3368 63.5536C43.7664 63.1724 43.3218 62.6307 43.0592 61.9969C42.7967 61.363 42.728 60.6656 42.8618 59.9927C42.9957 59.3198 43.326 58.7018 43.8111 58.2167C44.2963 57.7315 44.9143 57.4012 45.5872 57.2673C46.2601 57.1335 46.9575 57.2022 47.5913 57.4647C48.2252 57.7273 48.7669 58.1719 49.1481 58.7423C49.5292 59.3127 49.7327 59.9834 49.7327 60.6694C49.7318 61.5891 49.3661 62.4709 48.7158 63.1213C48.0654 63.7716 47.1836 64.1373 46.2639 64.1382ZM46.2639 58.9368C45.9209 58.9368 45.5856 59.0385 45.3004 59.2291C45.0151 59.4197 44.7928 59.6905 44.6616 60.0075C44.5303 60.3244 44.4959 60.6731 44.5629 61.0095C44.6298 61.346 44.795 61.655 45.0375 61.8976C45.2801 62.1401 45.5891 62.3053 45.9256 62.3722C46.262 62.4391 46.6107 62.4048 46.9276 62.2735C47.2445 62.1423 47.5154 61.92 47.706 61.6347C47.8966 61.3495 47.9983 61.0142 47.9983 60.6712C47.9983 60.2112 47.8156 59.77 47.4903 59.4448C47.165 59.1195 46.7239 58.9368 46.2639 58.9368Z" fill="#899F87"/>
<path d="M64.7788 64.1382C64.0928 64.1382 63.4221 63.9347 62.8517 63.5536C62.2812 63.1724 61.8366 62.6307 61.5741 61.9969C61.3116 61.363 61.2429 60.6656 61.3767 59.9927C61.5106 59.3198 61.8409 58.7018 62.326 58.2167C62.8111 57.7315 63.4292 57.4012 64.1021 57.2673C64.775 57.1335 65.4724 57.2022 66.1062 57.4647C66.7401 57.7273 67.2818 58.1719 67.663 58.7423C68.0441 59.3127 68.2476 59.9834 68.2476 60.6694C68.2467 61.5891 67.881 62.4709 67.2307 63.1213C66.5803 63.7716 65.6985 64.1373 64.7788 64.1382ZM64.7788 58.9368C64.4358 58.9368 64.1005 59.0385 63.8152 59.2291C63.53 59.4197 63.3077 59.6905 63.1765 60.0075C63.0452 60.3244 63.0108 60.6731 63.0778 61.0095C63.1447 61.346 63.3099 61.655 63.5524 61.8976C63.795 62.1401 64.104 62.3053 64.4404 62.3722C64.7769 62.4391 65.1256 62.4048 65.4425 62.2735C65.7594 62.1423 66.0303 61.92 66.2209 61.6347C66.4115 61.3495 66.5132 61.0142 66.5132 60.6712C66.5132 60.2112 66.3305 59.77 66.0052 59.4448C65.6799 59.1195 65.2388 58.9368 64.7788 58.9368Z" fill="#899F87"/>
<path d="M14.2538 35.9725C14.064 35.9726 13.8794 35.9104 13.7284 35.7955C13.5773 35.6807 13.4681 35.5194 13.4175 35.3365L13.4146 35.3261C13.4117 35.318 13.4091 35.3085 13.4059 35.2972C13.3019 34.9656 12.4841 32.5566 10.3881 31.4145C9.04658 30.6835 7.41627 30.6051 5.54256 31.1769C5.43296 31.2129 5.31729 31.2267 5.2023 31.2174C5.08731 31.2081 4.97533 31.176 4.87291 31.1229C4.7705 31.0698 4.6797 30.9969 4.60584 30.9082C4.53198 30.8196 4.47654 30.7172 4.44277 30.6069C4.409 30.4966 4.39758 30.3806 4.40918 30.2658C4.42077 30.1511 4.45515 30.0398 4.5103 29.9384C4.56545 29.8371 4.64026 29.7478 4.73035 29.6758C4.82044 29.6037 4.924 29.5504 5.03497 29.5188C6.90867 28.9453 8.21466 27.9666 8.91708 26.6097C10.0918 24.3412 9.24054 21.6893 9.23187 21.6627C9.19706 21.5533 9.18435 21.438 9.19446 21.3236C9.20456 21.2092 9.2373 21.0979 9.29076 20.9963C9.34421 20.8946 9.41733 20.8046 9.50586 20.7314C9.5944 20.6583 9.69658 20.6034 9.80648 20.5701C9.91638 20.5367 10.0318 20.5255 10.1461 20.5372C10.2603 20.5488 10.3711 20.583 10.4721 20.6378C10.573 20.6926 10.6621 20.7669 10.734 20.8564C10.806 20.9459 10.8595 21.0488 10.8914 21.1592C10.8983 21.184 11.6773 23.8578 13.9208 25.0803C15.262 25.8105 16.8923 25.8897 18.7657 25.3173C18.8752 25.2816 18.9908 25.2681 19.1055 25.2776C19.2203 25.2871 19.3321 25.3193 19.4343 25.3724C19.5364 25.4255 19.627 25.4984 19.7007 25.587C19.7744 25.6755 19.8298 25.7778 19.8635 25.8879C19.8972 25.998 19.9087 26.1137 19.8972 26.2283C19.8857 26.3429 19.8515 26.4541 19.7966 26.5553C19.7417 26.6566 19.6672 26.7459 19.5774 26.818C19.4876 26.8901 19.3843 26.9436 19.2736 26.9754C17.3999 27.5492 16.0939 28.5279 15.3915 29.8848C14.2853 32.0213 14.9758 34.4977 15.0675 34.8012L15.0709 34.8127L15.077 34.8318C15.1203 34.9622 15.132 35.1009 15.1112 35.2367C15.0904 35.3725 15.0376 35.5014 14.9572 35.6128C14.8768 35.7242 14.7711 35.8148 14.6488 35.8774C14.5265 35.9399 14.3911 35.9725 14.2538 35.9725ZM9.1411 29.1708C9.87459 29.2968 10.582 29.544 11.2342 29.9024C11.9423 30.2953 12.58 30.8033 13.1212 31.4056C13.2325 30.6035 13.4767 29.8255 13.8439 29.1037C14.1839 28.4417 14.6315 27.8407 15.1686 27.3254C14.4348 27.1993 13.727 26.952 13.0744 26.5935C12.3661 26.2008 11.7281 25.6928 11.1868 25.0904C11.0755 25.8926 10.8312 26.6706 10.4641 27.3925C10.1245 28.0544 9.67746 28.6553 9.1411 29.1708Z" fill="#899F87"/>
<path d="M52.5663 36.192C52.4396 36.1921 52.3144 36.1645 52.1995 36.111C52.0846 36.0575 51.9828 35.9795 51.9013 35.8824C51.8199 35.7854 51.7606 35.6716 51.7278 35.5492C51.695 35.4268 51.6895 35.2987 51.7115 35.1739C51.7138 35.1595 52.0006 33.3696 51.0369 32.0408C50.4639 31.2516 49.5355 30.7562 48.2775 30.5683C48.0721 30.5376 47.8846 30.4343 47.749 30.2772C47.6134 30.12 47.5386 29.9194 47.5383 29.7118C47.5384 29.6686 47.5416 29.6254 47.5479 29.5826C47.5647 29.4699 47.6035 29.3617 47.6622 29.2641C47.7208 29.1664 47.7982 29.0813 47.8897 29.0135C47.9813 28.9458 48.0853 28.8967 48.1958 28.8692C48.3063 28.8416 48.4212 28.8361 48.5339 28.853C49.7971 29.0409 50.8334 28.8365 51.613 28.2434C52.9103 27.2562 53.1615 25.4684 53.1635 25.4519C53.1803 25.3392 53.2192 25.231 53.2779 25.1334C53.3366 25.0358 53.4139 24.9507 53.5055 24.8829C53.5971 24.8152 53.7011 24.7662 53.8116 24.7386C53.9221 24.7111 54.037 24.7056 54.1496 24.7224C54.2623 24.7393 54.3705 24.7782 54.4681 24.8369C54.5657 24.8955 54.6508 24.9729 54.7186 25.0644C54.7863 25.156 54.8354 25.26 54.8629 25.3705C54.8904 25.4811 54.8959 25.5959 54.8791 25.7086C54.8765 25.7227 54.59 27.5123 55.5537 28.8411C56.1264 29.6303 57.0548 30.1257 58.3128 30.3136C58.5182 30.3442 58.7058 30.4475 58.8415 30.6047C58.9772 30.7618 59.052 30.9625 59.0523 31.1701C59.0523 31.2134 59.049 31.2566 59.0424 31.2993C59.0085 31.5268 58.8855 31.7314 58.7007 31.8683C58.5158 32.0051 58.2842 32.0629 58.0567 32.0289C56.7932 31.8402 55.757 32.0454 54.9774 32.6386C53.6803 33.6257 53.4291 35.4136 53.4271 35.43C53.4014 35.6403 53.2997 35.8338 53.1411 35.9742C52.9825 36.1145 52.7781 36.192 52.5663 36.192ZM51.6893 30.2009C51.9751 30.4499 52.231 30.7312 52.4521 31.0392C52.6924 31.3744 52.8913 31.7375 53.0444 32.1206C53.303 31.7991 53.5994 31.51 53.9272 31.2594C54.2283 31.0295 54.5552 30.8355 54.9013 30.6813C54.6155 30.4323 54.3596 30.151 54.1385 29.843C53.8981 29.5078 53.6991 29.1447 53.5459 28.7617C53.2875 29.0832 52.9912 29.3723 52.6634 29.6228C52.3622 29.8526 52.0353 30.0466 51.6893 30.2009Z" fill="#899F87"/>
<path d="M36.5086 16.5294C36.3875 16.5295 36.2677 16.5043 36.1569 16.4553C36.0461 16.4063 35.9468 16.3346 35.8654 16.2449C35.784 16.1552 35.7223 16.0495 35.6843 15.9345C35.6463 15.8195 35.6328 15.6978 35.6446 15.5772V15.5691C35.6446 15.5599 35.6446 15.5497 35.6469 15.5402C35.6683 15.2069 35.7669 12.7817 34.2953 11.047C33.3535 9.93673 31.9302 9.30599 30.0649 9.17273C29.8462 9.1571 29.6417 9.05927 29.4923 8.89892C29.3428 8.73858 29.2597 8.5276 29.2595 8.30844C29.2595 8.28762 29.2595 8.26681 29.2615 8.24571C29.2691 8.13194 29.2992 8.02079 29.35 7.9187C29.4007 7.81661 29.4713 7.7256 29.5574 7.65093C29.6436 7.57626 29.7437 7.51941 29.852 7.48367C29.9603 7.44793 30.0746 7.434 30.1883 7.44269C32.0545 7.57682 33.5527 7.15363 34.6433 6.18961C36.3592 4.67116 36.598 2.23321 36.6214 1.92594V1.91033V1.89414C36.6381 1.66472 36.7452 1.45134 36.9193 1.30094C37.0055 1.22646 37.1055 1.16969 37.2136 1.13387C37.3217 1.09804 37.4358 1.08386 37.5494 1.09214C37.663 1.10041 37.7738 1.13098 37.8756 1.1821C37.9774 1.23321 38.0681 1.30388 38.1426 1.39005C38.2171 1.47623 38.2738 1.57623 38.3097 1.68435C38.3455 1.79246 38.3597 1.90658 38.3514 2.02017V2.02827C38.3514 2.03752 38.3514 2.04763 38.3491 2.05862C38.3277 2.39219 38.2291 4.81714 39.7007 6.5518C40.6425 7.66209 42.0659 8.29283 43.9312 8.42637C44.1497 8.442 44.3543 8.53979 44.5037 8.70008C44.6531 8.86037 44.7363 9.07127 44.7365 9.29038C44.7365 9.3112 44.7365 9.33201 44.7345 9.35311C44.7266 9.46679 44.6964 9.5778 44.6455 9.67976C44.5947 9.78172 44.5241 9.87262 44.438 9.94724C44.3519 10.0219 44.2519 10.0787 44.1437 10.1146C44.0356 10.1504 43.9214 10.1645 43.8077 10.1561C41.9416 10.0232 40.4434 10.4452 39.3527 11.4092C37.6368 12.9277 37.3981 15.3656 37.3747 15.6729V15.6885V15.7047C37.3632 15.9268 37.267 16.1361 37.1059 16.2896C36.9448 16.443 36.7311 16.5288 36.5086 16.5294ZM34.06 8.58767C34.6528 8.95046 35.1832 9.40649 35.6307 9.93817C36.1158 10.5185 36.5035 11.1737 36.7789 11.8781C37.152 11.2201 37.6291 10.6269 38.1918 10.1214C38.7107 9.65902 39.3006 9.28315 39.9389 9.00826C39.3461 8.64546 38.8158 8.18944 38.3682 7.65776C37.8832 7.07741 37.4954 6.42228 37.22 5.71786C36.8469 6.37583 36.3698 6.96905 35.8071 7.47449C35.2884 7.93686 34.6987 8.31273 34.0606 8.58767H34.06Z" fill="#899F87"/>
<path d="M14.6688 12.4556H12.915C12.685 12.4556 12.4645 12.3642 12.3018 12.2016C12.1392 12.0389 12.0479 11.8184 12.0479 11.5884C12.0479 11.3584 12.1392 11.1378 12.3018 10.9752C12.4645 10.8126 12.685 10.7212 12.915 10.7212H14.6688C14.8988 10.7212 15.1193 10.8126 15.282 10.9752C15.4446 11.1378 15.536 11.3584 15.536 11.5884C15.536 11.8184 15.4446 12.0389 15.282 12.2016C15.1193 12.3642 14.8988 12.4556 14.6688 12.4556Z" fill="#899F87"/>
<path d="M16.4478 15.9853C16.2178 15.9853 15.9972 15.8939 15.8346 15.7313C15.6719 15.5687 15.5806 15.3481 15.5806 15.1181V13.3652C15.5806 13.1352 15.6719 12.9147 15.8346 12.752C15.9972 12.5894 16.2178 12.498 16.4478 12.498C16.6777 12.498 16.8983 12.5894 17.0609 12.752C17.2236 12.9147 17.3149 13.1352 17.3149 13.3652V15.1181C17.3149 15.3481 17.2236 15.5687 17.0609 15.7313C16.8983 15.8939 16.6777 15.9853 16.4478 15.9853Z" fill="#899F87"/>
<path d="M19.9769 12.4551H18.2231C17.9932 12.4551 17.7726 12.3637 17.61 12.2011C17.4473 12.0385 17.356 11.8179 17.356 11.5879C17.356 11.3579 17.4473 11.1373 17.61 10.9747C17.7726 10.8121 17.9932 10.7207 18.2231 10.7207H19.9769C20.2069 10.7207 20.4275 10.8121 20.5901 10.9747C20.7527 11.1373 20.8441 11.3579 20.8441 11.5879C20.8441 11.8179 20.7527 12.0385 20.5901 12.2011C20.4275 12.3637 20.2069 12.4551 19.9769 12.4551Z" fill="#899F87"/>
<path d="M16.4456 10.6778C16.2156 10.6778 15.995 10.5864 15.8324 10.4238C15.6697 10.2611 15.5784 10.0406 15.5784 9.81058V8.05713C15.5784 7.82714 15.6697 7.60656 15.8324 7.44393C15.995 7.28131 16.2156 7.18994 16.4456 7.18994C16.6755 7.18994 16.8961 7.28131 17.0588 7.44393C17.2214 7.60656 17.3127 7.82714 17.3127 8.05713V9.81058C17.3127 10.0406 17.2214 10.2611 17.0588 10.4238C16.8961 10.5864 16.6755 10.6778 16.4456 10.6778Z" fill="#899F87"/>
<path d="M62.2665 18.4023H60.5801C60.3501 18.4023 60.1295 18.311 59.9669 18.1484C59.8043 17.9857 59.7129 17.7651 59.7129 17.5352C59.7129 17.3052 59.8043 17.0846 59.9669 16.922C60.1295 16.7593 60.3501 16.668 60.5801 16.668H62.2665C62.4965 16.668 62.717 16.7593 62.8797 16.922C63.0423 17.0846 63.1337 17.3052 63.1337 17.5352C63.1337 17.7651 63.0423 17.9857 62.8797 18.1484C62.717 18.311 62.4965 18.4023 62.2665 18.4023Z" fill="#899F87"/>
<path d="M63.9756 21.7975C63.7456 21.7975 63.525 21.7062 63.3624 21.5435C63.1998 21.3809 63.1084 21.1603 63.1084 20.9303V19.2437C63.1084 19.0137 63.1998 18.7931 63.3624 18.6305C63.525 18.4678 63.7456 18.3765 63.9756 18.3765C64.2056 18.3765 64.4262 18.4678 64.5888 18.6305C64.7514 18.7931 64.8428 19.0137 64.8428 19.2437V20.9303C64.8428 21.1603 64.7514 21.3809 64.5888 21.5435C64.4262 21.7062 64.2056 21.7975 63.9756 21.7975Z" fill="#899F87"/>
<path d="M67.3708 18.4019H65.6841C65.4541 18.4019 65.2335 18.3105 65.0709 18.1479C64.9083 17.9852 64.8169 17.7647 64.8169 17.5347C64.8169 17.3047 64.9083 17.0841 65.0709 16.9215C65.2335 16.7588 65.4541 16.6675 65.6841 16.6675H67.3708C67.6008 16.6675 67.8213 16.7588 67.984 16.9215C68.1466 17.0841 68.2379 17.3047 68.2379 17.5347C68.2379 17.7647 68.1466 17.9852 67.984 18.1479C67.8213 18.3105 67.6008 18.4019 67.3708 18.4019Z" fill="#899F87"/>
<path d="M63.9749 16.6932C63.7449 16.6932 63.5243 16.6019 63.3617 16.4392C63.199 16.2766 63.1077 16.056 63.1077 15.826V14.1396C63.1077 13.9097 63.199 13.6891 63.3617 13.5265C63.5243 13.3638 63.7449 13.2725 63.9749 13.2725C64.2048 13.2725 64.4254 13.3638 64.588 13.5265C64.7507 13.6891 64.842 13.9097 64.842 14.1396V15.826C64.842 16.056 64.7507 16.2766 64.588 16.4392C64.4254 16.6019 64.2048 16.6932 63.9749 16.6932Z" fill="#899F87"/>
</svg>
