<svg xmlns="http://www.w3.org/2000/svg" style="display:none;">
    <symbol id="arrow" viewBox="0 0 31 20">
        <svg viewBox="0 0 31 20" xmlns="http://www.w3.org/2000/svg">
            <path fill-rule="evenodd" clip-rule="evenodd" d="M30.5002 10.0001L30.5527 9.26074L30.5532 9.25772L30.553 9.25768L30.548 9.25694L30.5235 9.25316C30.5007 9.24958 30.4654 9.24385 30.4185 9.23574C30.3247 9.2195 30.1847 9.19373 30.0061 9.15653C29.6486 9.08206 29.1386 8.96213 28.5374 8.78177C27.3297 8.41945 25.7802 7.82098 24.3629 6.8761C23.0131 5.97624 21.9592 4.47737 21.2303 3.141C20.8708 2.48197 20.6008 1.88201 20.4211 1.44775C20.3314 1.23097 20.2646 1.05643 20.2208 0.937624C20.1988 0.878244 20.1827 0.832863 20.1723 0.803172L20.161 0.770641L20.1586 0.763617L20.1583 0.762695C20.1583 0.762823 20.1584 0.762968 19.4469 1.00014C18.7354 1.23731 18.7354 1.23749 18.7355 1.23769L18.7357 1.23817L18.7361 1.23943L18.7373 1.2432L18.7415 1.25558L18.7566 1.29916C18.7697 1.33636 18.7887 1.38961 18.8136 1.45719C18.8635 1.59228 18.9373 1.78493 19.0351 2.02128C19.2304 2.49326 19.5229 3.14331 19.9135 3.85928C20.6845 5.27291 21.8806 7.02404 23.5309 8.12418C24.1954 8.5672 24.8807 8.93908 25.5479 9.25014H0.446877V10.7501H25.5479C24.8807 11.0612 24.1954 11.4331 23.5309 11.8761C21.8806 12.9762 20.6845 14.7274 19.9135 16.141C19.5229 16.857 19.2304 17.507 19.0351 17.979C18.9373 18.2153 18.8635 18.408 18.8136 18.5431C18.7887 18.6107 18.7697 18.6639 18.7566 18.7011L18.7415 18.7447L18.7373 18.7571L18.7361 18.7608L18.7357 18.7621L18.7355 18.7626C18.7354 18.7628 18.7354 18.763 19.4469 19.0001C20.1584 19.2373 20.1583 19.2375 20.1583 19.2376L20.1586 19.2367L20.161 19.2296L20.1723 19.1971C20.1827 19.1674 20.1988 19.122 20.2208 19.0627C20.2646 18.9438 20.3314 18.7693 20.4211 18.5525C20.6008 18.1183 20.8708 17.5183 21.2303 16.8593C21.9592 15.5229 23.0131 14.024 24.3629 13.1242C25.7802 12.1793 27.3297 11.5808 28.5374 11.2185C29.1386 11.0381 29.6486 10.9182 30.0061 10.8438C30.1847 10.8065 30.3247 10.7808 30.4185 10.7645C30.4654 10.7564 30.5007 10.7507 30.5235 10.7471L30.548 10.7433L30.553 10.7426L30.5532 10.7426L30.5527 10.7395L30.5002 10.0001Z" fill="var(--icon-fill, #213721)"/>
        </svg>
    </symbol>

    <symbol id="logo" viewBox="0 0 115 37">
        <svg width="115" height="37" viewBox="0 0 115 37" fill="none" xmlns="http://www.w3.org/2000/svg">
            <path d="M106.994 10.8869V18.2086C106.994 19.07 107.936 19.2046 108.851 19.2046V19.3661H102.902V19.2046C103.818 19.2046 104.76 19.07 104.76 18.2086V11.4791L99.3492 1.70778C98.784 0.738721 98.3263 0.684885 97.4111 0.684885V0.550293H103.387V0.684885C102.472 0.684885 101.422 0.792557 101.88 1.65394L106.536 10.0793H106.563L106.832 10.5908L111.516 1.70778C112.028 0.819476 111.301 0.684885 110.386 0.684885V0.550293H114.746V0.684885C113.804 0.684885 112.351 0.846394 111.839 1.70778L106.994 10.8869Z" fill="var(--icon-fill, #F2F6EF)"/>
            <path d="M81.981 5.07261L83.1923 0.523438H94.5786L95.7899 5.07261L95.6553 5.09953L94.6325 1.70784C94.3633 0.954129 93.8518 0.819538 92.9905 0.819538H91.8061C90.9178 0.819538 90.0025 0.819538 90.0025 1.68092V18.2087C90.0025 19.0701 90.9447 19.2047 91.8599 19.2047V19.3662H85.8841V19.2047C86.8262 19.2047 87.7683 19.0701 87.7683 18.2087V1.68092C87.7683 0.819538 86.8531 0.819538 85.9379 0.819538H84.7804C83.9191 0.819538 83.3807 0.954129 83.1384 1.70784L82.1156 5.09953L81.981 5.07261Z" fill="var(--icon-fill, #F2F6EF)"/>
            <path d="M76.5174 10.5369H76.3828C76.3828 7.60286 75.6291 7.14525 74.687 7.14525H73.9332C73.1257 7.14525 72.2643 7.25292 71.4568 7.46827V18.2086C71.4568 19.07 72.372 19.07 73.2872 19.07H77.5672C78.4286 19.07 78.9669 18.9623 79.2092 18.1817L80.2321 14.79L80.3667 14.8169L79.1553 19.3661H67.3652V19.2315C68.2804 19.2315 69.2226 19.07 69.2226 18.2086V8.51807C68.1997 9.27178 67.4998 10.3754 67.4998 11.8828H67.3652C67.3652 10.2408 68.1189 9.02952 69.2226 8.22197V1.70778C69.2226 0.819476 68.2804 0.684885 67.3652 0.684885V0.550293H79.1553L80.3667 5.07255L80.2321 5.12638L79.2092 1.70778C78.9669 0.954067 78.4286 0.819476 77.5672 0.819476H73.2872C72.372 0.819476 71.4568 0.819476 71.4568 1.70778V7.19908C72.2643 6.98374 73.1257 6.87607 73.9332 6.87607H74.687C75.6291 6.87607 76.3828 6.68764 76.3828 4.93796H76.5174V10.5369Z" fill="var(--icon-fill, #F2F6EF)"/>
            <path d="M54.4923 0.550293V0.684885C53.7117 0.684885 52.8773 0.792557 52.8234 1.38476L57.4803 14.0632L58.1801 16.0282L63.2407 1.70778H63.2138C63.483 0.819476 62.2986 0.684885 61.3834 0.684885V0.550293H65.7441V0.684885C64.8827 0.684885 63.9406 0.765639 63.5907 1.49243L57.3187 19.3661H57.0227V19.3392L50.5354 1.70778C50.2393 0.711803 49.4587 0.684885 48.5435 0.684885V0.550293H54.4923Z" fill="var(--icon-fill, #F2F6EF)"/>
            <path d="M38.0198 1.70778V18.2086C38.0198 19.07 38.935 19.0969 39.8233 19.0969H44.1033C44.9916 19.0969 45.5031 18.9623 45.7722 18.2086L46.7951 14.79L46.9297 14.8438L45.7184 19.3661H33.9014V19.2315C34.8435 19.2315 35.7856 19.0969 35.7856 18.2086V1.70778C35.7856 0.819476 34.8435 0.684885 33.9014 0.684885V0.550293H39.8772V0.684885C38.962 0.684885 38.0198 0.819476 38.0198 1.70778Z" fill="var(--icon-fill, #F2F6EF)"/>
            <path d="M28.4383 10.5369H28.3037C28.3037 7.60286 27.55 7.14525 26.6079 7.14525H25.8541C25.0466 7.14525 24.1852 7.25292 23.3777 7.46827V18.2086C23.3777 19.07 24.2929 19.07 25.2081 19.07H29.4881C30.3495 19.07 30.8878 18.9623 31.1301 18.1817L32.153 14.79L32.2876 14.8169L31.0763 19.3661H19.2861V19.2315C20.2013 19.2315 21.1435 19.07 21.1435 18.2086V8.51807C20.1206 9.27178 19.4207 10.3754 19.4207 11.8828H19.2861C19.2861 10.2408 20.0398 9.02952 21.1435 8.22197V1.70778C21.1435 0.819476 20.2013 0.684885 19.2861 0.684885V0.550293H31.0763L32.2876 5.07255L32.153 5.12638L31.1301 1.70778C30.8878 0.954067 30.3495 0.819476 29.4881 0.819476H25.2081C24.2929 0.819476 23.3777 0.819476 23.3777 1.70778V7.19908C24.1852 6.98374 25.0466 6.87607 25.8541 6.87607H26.6079C27.55 6.87607 28.3037 6.68764 28.3037 4.93796H28.4383V10.5369Z" fill="var(--icon-fill, #F2F6EF)"/>
            <path d="M6.41325 0.550293V0.684885C5.63263 0.684885 4.79817 0.792557 4.74433 1.38476L9.40116 14.0632L10.101 16.0282L15.1616 1.70778H15.1347C15.4039 0.819476 14.2195 0.684885 13.3043 0.684885V0.550293H17.665V0.684885C16.8036 0.684885 15.8615 0.765639 15.5116 1.49243L9.23965 19.3661H8.94355V19.3392L2.45629 1.70778C2.16019 0.711803 1.37957 0.684885 0.464355 0.684885V0.550293H6.41325Z" fill="var(--icon-fill, #F2F6EF)"/>
            <path d="M94.5058 35.9128C93.9734 35.9128 93.572 35.7644 93.3014 35.4677C93.0396 35.1797 92.9087 34.8218 92.9087 34.3942C92.9087 34.0015 93.0047 33.5869 93.1967 33.1506C93.3974 32.7142 93.6592 32.304 93.9821 31.92C94.3138 31.536 94.676 31.2262 95.0687 30.9906C95.4614 30.7462 95.8498 30.624 96.2338 30.624C96.4345 30.624 96.6178 30.6764 96.7836 30.7811C96.9581 30.8858 97.0454 31.0997 97.0454 31.4226C97.0454 31.7542 96.9451 32.0684 96.7443 32.3651C96.5523 32.6531 96.2949 32.9106 95.972 33.1375C95.6578 33.3644 95.3087 33.552 94.9247 33.7004C94.5494 33.84 94.1741 33.9273 93.7989 33.9622C93.7814 34.0495 93.7683 34.1324 93.7596 34.2109C93.7509 34.2895 93.7465 34.3637 93.7465 34.4335C93.7465 34.5644 93.7596 34.6953 93.7858 34.8262C93.8207 34.9571 93.8774 35.0793 93.956 35.1928C94.0345 35.2975 94.1392 35.3804 94.2701 35.4415C94.4098 35.5026 94.58 35.5331 94.7807 35.5331C95.156 35.5331 95.5269 35.4284 95.8934 35.2189C96.26 35.0008 96.6003 34.7171 96.9145 34.368C97.2287 34.0189 97.4949 33.6349 97.7131 33.216L97.8701 33.3338C97.6345 33.8575 97.3334 34.3113 96.9669 34.6953C96.6091 35.0793 96.2163 35.376 95.7887 35.5855C95.3698 35.8037 94.9421 35.9128 94.5058 35.9128ZM93.8643 33.7135C94.1 33.6349 94.3661 33.5215 94.6629 33.3731C94.9596 33.216 95.2432 33.0328 95.5138 32.8233C95.7931 32.6138 96.02 32.3826 96.1945 32.1295C96.3778 31.8764 96.4694 31.6102 96.4694 31.3309C96.4694 31.2349 96.452 31.1608 96.4171 31.1084C96.3821 31.056 96.308 31.0298 96.1945 31.0298C95.9851 31.0298 95.7625 31.1128 95.5269 31.2786C95.2912 31.4357 95.0643 31.6451 94.8461 31.9069C94.628 32.1688 94.4316 32.4568 94.2571 32.7709C94.0825 33.0851 93.9516 33.3993 93.8643 33.7135Z" fill="var(--icon-fill, #F2F6EF)"/>
            <path d="M90.8053 35.6775C90.5086 35.6775 90.273 35.5989 90.0984 35.4418C89.9326 35.2847 89.8497 35.0796 89.8497 34.8265C89.8497 34.5647 89.9108 34.2898 90.033 34.0018C90.1552 33.7138 90.273 33.4302 90.3864 33.1509C90.5086 32.8629 90.5697 32.6055 90.5697 32.3785C90.5697 32.0993 90.4868 31.8942 90.321 31.7633C90.1639 31.6236 90.0024 31.4971 89.8366 31.3836C89.6359 31.8985 89.4264 32.3873 89.2083 32.8498C88.9901 33.3124 88.8112 33.6615 88.6715 33.8971L88.5537 33.6745C88.6759 33.4476 88.833 33.116 89.025 32.6796C89.2257 32.2433 89.4221 31.7458 89.6141 31.1873C89.5268 31.1 89.4832 30.9953 89.4832 30.8731C89.4832 30.6113 89.5574 30.3975 89.7057 30.2316C89.8541 30.0658 89.9632 29.9829 90.033 29.9829C90.129 29.9829 90.1813 30.0265 90.1901 30.1138C90.2075 30.1924 90.2163 30.2535 90.2163 30.2971C90.2163 30.3407 90.1901 30.428 90.1377 30.5589C90.0941 30.6811 90.0723 30.7553 90.0723 30.7815C90.0723 30.9036 90.1377 31.0171 90.2686 31.1218C90.4083 31.2178 90.5654 31.3313 90.7399 31.4622C90.9144 31.5844 91.0672 31.7371 91.1981 31.9204C91.3377 32.0949 91.4075 32.3218 91.4075 32.6011C91.4075 32.8629 91.3508 33.1291 91.2373 33.3996C91.1326 33.6702 91.0235 33.9276 90.9101 34.172C90.8054 34.4164 90.753 34.6302 90.753 34.8135C90.753 34.9705 90.7923 35.0753 90.8708 35.1276C90.9493 35.18 91.041 35.2062 91.1457 35.2062C91.3552 35.2062 91.569 35.1407 91.7872 35.0098C92.0141 34.8789 92.2323 34.7131 92.4417 34.5124C92.6512 34.3116 92.8388 34.1022 93.0046 33.884C93.1704 33.6571 93.2926 33.4476 93.3712 33.2556L93.5413 33.3865C93.3755 33.7531 93.1486 34.1153 92.8606 34.4731C92.5726 34.8222 92.2497 35.1102 91.8919 35.3371C91.5428 35.564 91.1806 35.6775 90.8053 35.6775Z" fill="var(--icon-fill, #F2F6EF)"/>
            <path d="M83.4673 35.9526C83.1967 35.9526 82.9698 35.861 82.7865 35.6777C82.5945 35.5032 82.4985 35.2326 82.4985 34.8661C82.4985 34.5519 82.5684 34.2159 82.708 33.8581C82.8476 33.4915 83.0396 33.1337 83.284 32.7846C83.5284 32.4268 83.8033 32.1039 84.1087 31.8159C84.4229 31.5192 84.7502 31.2835 85.0905 31.109C85.4396 30.9344 85.7844 30.8472 86.1247 30.8472C86.4651 30.8472 86.7487 30.9388 86.9756 31.1221C87.2025 31.2966 87.316 31.5323 87.316 31.829C87.316 32.0472 87.2549 32.1955 87.1327 32.2741C87.0193 32.3526 86.8665 32.3919 86.6745 32.3919C86.692 32.3221 86.7051 32.2479 86.7138 32.1694C86.7313 32.0821 86.74 32.0035 86.74 31.9337C86.74 31.733 86.692 31.5628 86.596 31.4232C86.5 31.2748 86.3342 31.2006 86.0985 31.2006C85.8542 31.2006 85.6054 31.2879 85.3524 31.4624C85.0993 31.6283 84.8549 31.8552 84.6193 32.1432C84.3836 32.4224 84.1742 32.7279 83.9909 33.0595C83.8076 33.3912 83.6636 33.7184 83.5589 34.0414C83.4542 34.3643 83.4018 34.6523 83.4018 34.9054C83.4018 35.2457 83.5196 35.4159 83.7553 35.4159C83.956 35.4159 84.1742 35.3243 84.4098 35.141C84.6454 34.949 84.8854 34.709 85.1298 34.421C85.3829 34.1243 85.6229 33.8188 85.8498 33.5046C86.0767 33.1904 86.2774 32.9024 86.452 32.6406C86.4869 32.5883 86.5087 32.5621 86.5174 32.5621C86.5698 32.5708 86.6353 32.5883 86.7138 32.6144C86.8011 32.6406 86.8753 32.6755 86.9364 32.7192C86.9974 32.7628 87.028 32.8195 87.028 32.8893C87.028 32.9679 86.9887 33.077 86.9102 33.2166C86.8316 33.3475 86.7444 33.5003 86.6484 33.6748C86.5524 33.8494 86.4651 34.0283 86.3865 34.2115C86.308 34.3861 86.2687 34.5519 86.2687 34.709C86.2687 34.8399 86.3036 34.9708 86.3734 35.1017C86.4433 35.2239 86.5567 35.285 86.7138 35.285C86.9494 35.285 87.2593 35.1148 87.6433 34.7744C88.0273 34.4254 88.4156 33.9061 88.8084 33.2166L88.9393 33.3475C88.756 33.8188 88.5204 34.2334 88.2324 34.5912C87.9444 34.949 87.6345 35.2283 87.3029 35.429C86.98 35.6297 86.6614 35.7301 86.3473 35.7301C86.0244 35.7301 85.7844 35.6341 85.6273 35.4421C85.4789 35.2501 85.4047 35.0406 85.4047 34.8137C85.4047 34.7613 85.4091 34.7046 85.4178 34.6435C85.4265 34.5737 85.4353 34.5039 85.444 34.4341C85.0687 34.9403 84.724 35.3199 84.4098 35.573C84.1044 35.8261 83.7902 35.9526 83.4673 35.9526Z" fill="var(--icon-fill, #F2F6EF)"/>
            <path d="M80.0082 36.0699C79.5893 36.0699 79.2402 35.9303 78.9609 35.651C78.6816 35.3717 78.542 34.9528 78.542 34.3943C78.542 33.9579 78.6249 33.5347 78.7907 33.1245C78.9653 32.7056 79.1922 32.3303 79.4714 31.9987C79.7507 31.667 80.0605 31.4052 80.4009 31.2132C80.7413 31.0125 81.0773 30.9121 81.4089 30.9121C81.7667 30.9121 82.0111 31.0168 82.142 31.2263C82.2729 31.4357 82.3384 31.6539 82.3384 31.8808C82.3384 32.1339 82.2773 32.3565 82.1551 32.5485C82.0416 32.7405 81.8845 32.8365 81.6838 32.8365C81.5354 32.8365 81.4089 32.771 81.3042 32.6401C81.4351 32.5703 81.5485 32.4307 81.6445 32.2212C81.7405 32.003 81.7885 31.7979 81.7885 31.6059C81.7885 31.5012 81.7667 31.4227 81.7231 31.3703C81.6882 31.3092 81.614 31.2787 81.5005 31.2787C81.2649 31.2787 81.0205 31.3834 80.7674 31.5928C80.5231 31.8023 80.2918 32.0728 80.0736 32.4045C79.8642 32.7361 79.6896 33.0852 79.55 33.4517C79.4191 33.8183 79.3536 34.163 79.3536 34.4859C79.3536 34.7565 79.4191 35.0052 79.55 35.2321C79.6809 35.459 79.934 35.5725 80.3093 35.5725C80.6584 35.5725 81.0074 35.4765 81.3565 35.2845C81.7144 35.0925 82.046 34.8176 82.3515 34.4597C82.6569 34.1019 82.9013 33.683 83.0845 33.203L83.2547 33.3339C83.054 33.8576 82.7791 34.3288 82.43 34.7477C82.0809 35.1579 81.6969 35.4808 81.278 35.7165C80.8591 35.9521 80.4358 36.0699 80.0082 36.0699Z" fill="var(--icon-fill, #F2F6EF)"/>
            <path d="M76.738 35.599C76.4326 35.599 76.2013 35.5205 76.0442 35.3634C75.8958 35.2063 75.8217 35.0056 75.8217 34.7612C75.8217 34.5779 75.8522 34.3859 75.9133 34.1852C75.9831 33.9845 76.0486 33.7794 76.1097 33.5699C76.1708 33.3517 76.2013 33.1423 76.2013 32.9416C76.2013 32.6972 76.1489 32.5314 76.0442 32.4441C75.9482 32.3481 75.826 32.3001 75.6777 32.3001C75.4071 32.3001 75.1322 32.4136 74.8529 32.6405C74.5737 32.8586 74.3031 33.1423 74.0413 33.4914C73.7795 33.8317 73.5351 34.1852 73.3082 34.5517C73.0813 34.9183 72.8806 35.2456 72.706 35.5336C72.5664 35.5336 72.4355 35.5074 72.3133 35.455C72.1824 35.4114 72.082 35.3416 72.0122 35.2456C72.0122 35.2019 72.0602 35.0666 72.1562 34.8397C72.2435 34.6128 72.3482 34.3336 72.4704 34.0019C72.5926 33.6703 72.7017 33.3299 72.7977 32.9808C72.8937 32.6317 72.9417 32.3132 72.9417 32.0252C72.994 31.9641 73.0769 31.903 73.1904 31.8419C73.3038 31.7808 73.4217 31.7503 73.5438 31.7503C73.7795 31.7503 73.8973 31.8637 73.8973 32.0906C73.8973 32.2303 73.858 32.4659 73.7795 32.7976C73.7009 33.1205 73.6006 33.4608 73.4784 33.8186C73.714 33.4608 73.9758 33.1074 74.2638 32.7583C74.5606 32.4005 74.8748 32.1037 75.2064 31.8681C75.538 31.6325 75.8697 31.5146 76.2013 31.5146C76.5417 31.5146 76.786 31.6368 76.9344 31.8812C77.0915 32.1256 77.17 32.3961 77.17 32.6928C77.17 32.9634 77.1264 33.2165 77.0391 33.4521C76.9518 33.679 76.8602 33.9016 76.7642 34.1197C76.6769 34.3292 76.6333 34.543 76.6333 34.7612C76.6333 34.9445 76.6682 35.0754 76.738 35.1539C76.8166 35.2237 76.9126 35.2586 77.026 35.2586C77.2442 35.2586 77.4624 35.1583 77.6806 34.9576C77.8988 34.7481 78.1082 34.4863 78.3089 34.1721C78.5184 33.8579 78.7017 33.5394 78.8588 33.2165L79.0028 33.3866C78.8195 33.8143 78.6144 34.1939 78.3875 34.5256C78.1606 34.8572 77.9118 35.119 77.6413 35.311C77.3708 35.503 77.0697 35.599 76.738 35.599Z" fill="var(--icon-fill, #F2F6EF)"/>
            <path d="M70.2941 35.6772C69.9538 35.6772 69.7007 35.5681 69.5349 35.3499C69.369 35.1405 69.2861 34.883 69.2861 34.5776C69.2861 34.3768 69.321 34.1238 69.3909 33.8183C69.4694 33.5128 69.5698 33.1943 69.692 32.8627C69.8141 32.5223 69.9538 32.2038 70.1109 31.907C70.2767 31.6103 70.4512 31.3703 70.6345 31.187C70.8178 30.995 70.9967 30.899 71.1712 30.899C71.2498 30.899 71.3152 30.9252 71.3676 30.9776C71.4287 31.0212 71.4592 31.091 71.4592 31.187C71.4592 31.2918 71.3894 31.4619 71.2498 31.6976C71.1189 31.9332 70.9618 32.2038 70.7785 32.5092C70.5952 32.8147 70.4338 33.1376 70.2941 33.4779C70.1632 33.8096 70.0978 34.1281 70.0978 34.4336C70.0978 34.7478 70.1501 34.9572 70.2549 35.0619C70.3596 35.1667 70.521 35.219 70.7392 35.219C71.036 35.219 71.3501 35.0707 71.6818 34.7739C72.0221 34.4772 72.38 33.9579 72.7552 33.2161L72.873 33.347C72.62 34.0976 72.2534 34.6736 71.7734 35.075C71.3021 35.4765 70.809 35.6772 70.2941 35.6772ZM71.865 29.6816C71.7254 29.6816 71.5989 29.6467 71.4854 29.5768C71.3807 29.507 71.3283 29.3979 71.3283 29.2496C71.3283 29.0663 71.433 28.9092 71.6425 28.7783C71.8607 28.6387 72.0745 28.5688 72.284 28.5688C72.4149 28.5688 72.5196 28.5994 72.5981 28.6605C72.6767 28.7216 72.716 28.8263 72.716 28.9747C72.716 29.1405 72.6243 29.3019 72.441 29.459C72.2665 29.6074 72.0745 29.6816 71.865 29.6816Z" fill="var(--icon-fill, #F2F6EF)"/>
            <path d="M67.3976 35.8346C67.1533 35.8346 66.9438 35.7517 66.7693 35.5859C66.5947 35.4201 66.4551 35.2106 66.3504 34.9575C66.2544 34.7044 66.1802 34.447 66.1278 34.1851C66.0842 33.9146 66.0624 33.679 66.0624 33.4782C66.1584 33.4782 66.298 33.4564 66.4813 33.4128C66.6646 33.3604 66.8522 33.2862 67.0442 33.1902C67.2362 33.0855 67.3976 32.9546 67.5286 32.7975C67.6682 32.6317 67.738 32.4397 67.738 32.2215C67.738 32.0382 67.6726 31.8942 67.5416 31.7895C67.4107 31.6848 67.258 31.6324 67.0835 31.6324C66.8129 31.6324 66.5598 31.7284 66.3242 31.9204C66.0886 32.1037 65.8747 32.3481 65.6827 32.6535C65.4995 32.9502 65.3336 33.2688 65.1853 33.6091C65.0369 33.9495 64.9104 34.2724 64.8056 34.5779C64.7009 34.8833 64.6136 35.1364 64.5438 35.3371C64.4915 35.4942 64.4173 35.599 64.3213 35.6513C64.2253 35.7124 64.1249 35.743 64.0202 35.743C63.8718 35.743 63.7627 35.6819 63.6929 35.5597C63.6318 35.4375 63.5926 35.2848 63.5751 35.1015C63.5664 34.9095 63.562 34.7131 63.562 34.5124C63.562 34.0586 63.6362 33.535 63.7846 32.9415C63.9329 32.3481 64.1293 31.7328 64.3736 31.0957C64.6267 30.4499 64.9016 29.8259 65.1984 29.2237C65.4951 28.6215 65.7918 28.0761 66.0886 27.5873C66.3853 27.0986 66.6602 26.7102 66.9133 26.4222C67.1664 26.1342 67.3715 25.9902 67.5286 25.9902C67.6507 25.9902 67.7467 26.0731 67.8166 26.239C67.8951 26.4048 67.9344 26.6055 67.9344 26.8411C67.9344 27.1379 67.8689 27.4739 67.738 27.8491C67.6071 28.2157 67.4195 28.5866 67.1751 28.9619C66.9395 29.3371 66.6558 29.6906 66.3242 30.0222C66.0013 30.3539 65.6478 30.6375 65.2638 30.8731C64.9758 31.5801 64.7577 32.2695 64.6093 32.9415C64.4697 33.6048 64.3998 34.1633 64.3998 34.6171C64.5395 34.2681 64.7053 33.8841 64.8973 33.4651C65.098 33.0462 65.3249 32.6448 65.578 32.2608C65.8311 31.8768 66.106 31.5626 66.4027 31.3182C66.6995 31.0739 67.0093 30.9517 67.3322 30.9517C67.6551 30.9517 67.93 31.0651 68.1569 31.2921C68.3838 31.519 68.4973 31.7939 68.4973 32.1168C68.4973 32.3961 68.4231 32.6361 68.2747 32.8368C68.1351 33.0288 67.9606 33.1859 67.7511 33.3081C67.5504 33.4215 67.3453 33.5088 67.1358 33.5699C66.9351 33.6222 66.7693 33.6484 66.6384 33.6484C66.6471 33.7182 66.6733 33.8448 66.7169 34.0281C66.7606 34.2113 66.8216 34.4033 66.9002 34.6041C66.9875 34.8048 67.0922 34.9793 67.2144 35.1277C67.3366 35.2673 67.4849 35.3371 67.6595 35.3371C67.9126 35.3371 68.1526 35.2411 68.3795 35.0491C68.6064 34.8571 68.8202 34.6041 69.0209 34.2899C69.2304 33.967 69.4224 33.6048 69.5969 33.2033L69.7278 33.3342C69.6056 33.7619 69.418 34.1677 69.1649 34.5517C68.9118 34.927 68.6282 35.2324 68.314 35.4681C68.0086 35.7124 67.7031 35.8346 67.3976 35.8346ZM65.4864 30.3495C65.8878 30.0266 66.2369 29.6601 66.5336 29.2499C66.8391 28.8397 67.0747 28.447 67.2406 28.0717C67.4064 27.6877 67.4893 27.3866 67.4893 27.1684C67.4893 27.1248 67.4849 27.0942 67.4762 27.0768C67.4762 27.0593 67.4675 27.0506 67.45 27.0506C67.3627 27.0506 67.21 27.2033 66.9918 27.5088C66.7824 27.8142 66.5424 28.2201 66.2718 28.7262C66.0013 29.2237 65.7395 29.7648 65.4864 30.3495Z" fill="var(--icon-fill, #F2F6EF)"/>
            <path d="M60.3712 36.005C59.961 36.005 59.6338 35.9134 59.3894 35.7301C59.1538 35.5556 58.988 35.3374 58.892 35.0756C58.7872 34.8138 58.7349 34.552 58.7349 34.2901C58.7349 34.0283 58.7698 33.8276 58.8396 33.688C58.9094 33.5483 58.9923 33.4436 59.0883 33.3738C59.193 33.304 59.289 33.2516 59.3763 33.2167C59.4723 33.1818 59.5378 33.1469 59.5727 33.112C59.8345 32.824 60.0745 32.5229 60.2927 32.2087C60.5109 31.8945 60.7029 31.5629 60.8687 31.2138V31.0567C60.8687 30.7338 60.921 30.5069 61.0258 30.376C61.1392 30.2363 61.257 30.1665 61.3792 30.1665C61.449 30.1665 61.5014 30.184 61.5363 30.2189C61.5712 30.2538 61.5887 30.293 61.5887 30.3367C61.5887 30.3803 61.5756 30.4501 61.5494 30.5461C61.5232 30.6421 61.5101 30.7643 61.5101 30.9127C61.5101 31.2007 61.5669 31.5149 61.6803 31.8552C61.7938 32.1869 61.9072 32.5403 62.0207 32.9156C62.1341 33.2821 62.1909 33.6661 62.1909 34.0676C62.1909 34.181 62.1821 34.2945 62.1647 34.408C62.156 34.5127 62.1385 34.613 62.1123 34.709C62.4178 34.6567 62.7058 34.5214 62.9763 34.3032C63.2469 34.0763 63.5087 33.7185 63.7618 33.2298L63.8796 33.3607C63.7138 33.8407 63.465 34.2072 63.1334 34.4603C62.8018 34.7047 62.4396 34.8574 62.0469 34.9185C61.9072 35.2938 61.6847 35.5687 61.3792 35.7432C61.0825 35.9178 60.7465 36.005 60.3712 36.005ZM60.3974 35.5469C60.5021 35.5469 60.6418 35.512 60.8163 35.4421C60.9909 35.3723 61.1261 35.1934 61.2221 34.9054C60.8556 34.8356 60.5283 34.6916 60.2403 34.4734C59.961 34.2552 59.7516 34.037 59.612 33.8189C59.42 33.8276 59.324 33.9803 59.324 34.277C59.324 34.5912 59.4156 34.8836 59.5989 35.1541C59.7909 35.416 60.057 35.5469 60.3974 35.5469ZM61.2876 34.696C61.305 34.6087 61.3181 34.517 61.3269 34.421C61.3356 34.325 61.34 34.2116 61.34 34.0807C61.34 33.6705 61.2876 33.2647 61.1829 32.8632C61.0869 32.453 61.004 32.069 60.9341 31.7112C60.7334 32.0429 60.5196 32.3614 60.2927 32.6669C60.0745 32.9636 59.865 33.2123 59.6643 33.413C59.7952 33.6923 59.996 33.9541 60.2665 34.1985C60.5458 34.4429 60.8861 34.6087 61.2876 34.696Z" fill="var(--icon-fill, #F2F6EF)"/>
            <path d="M50.043 36.4761C49.5193 36.4761 49.0655 36.367 48.6815 36.1488C48.2975 35.9306 48.0008 35.6426 47.7913 35.2848C47.5906 34.9183 47.4902 34.5212 47.4902 34.0935C47.4902 33.6921 47.5775 33.2994 47.7521 32.9153C47.9266 32.5314 48.1666 32.1823 48.4721 31.8681C48.7862 31.5452 49.1484 31.2833 49.5586 31.0826C49.9688 30.8732 50.4095 30.7466 50.8808 30.703C50.5404 30.4237 50.2873 30.1008 50.1215 29.7343C49.9644 29.3677 49.8859 29.0012 49.8859 28.6346C49.8859 28.1721 50.0037 27.7357 50.2393 27.3255C50.475 26.9066 50.7935 26.5706 51.195 26.3175C51.6051 26.0557 52.0721 25.9248 52.5957 25.9248C53.067 25.9248 53.4204 26.0426 53.6561 26.2783C53.9004 26.5139 54.0226 26.8586 54.0226 27.3124C54.0226 27.6354 53.9702 27.9539 53.8655 28.2681C53.7608 28.5735 53.6299 28.8266 53.4728 29.0274C53.3244 29.2194 53.1761 29.3153 53.0277 29.3153C52.9317 29.3153 52.8401 29.2761 52.7528 29.1975C52.6655 29.1103 52.5957 29.0099 52.5433 28.8964C52.8488 28.6259 53.1019 28.3466 53.3026 28.0586C53.5121 27.7619 53.6168 27.4434 53.6168 27.103C53.6168 26.8324 53.5426 26.6143 53.3942 26.4484C53.2546 26.2739 53.0321 26.1866 52.7266 26.1866C52.3164 26.1866 51.9717 26.3132 51.6924 26.5663C51.4131 26.8106 51.1993 27.1379 51.051 27.5481C50.9113 27.9495 50.8415 28.3859 50.8415 28.8572C50.8415 29.0666 50.859 29.2892 50.8939 29.5248C50.9375 29.7604 51.0117 29.9917 51.1164 30.2186C51.2299 30.4455 51.3913 30.6506 51.6008 30.8339C51.0161 30.9299 50.5055 31.1524 50.0691 31.5015C49.6415 31.8506 49.3055 32.2608 49.0611 32.7321C48.8255 33.2034 48.7077 33.6703 48.7077 34.1328C48.7077 34.4208 48.7601 34.7132 48.8648 35.0099C48.9782 35.2979 49.1571 35.5379 49.4015 35.7299C49.6459 35.9306 49.9731 36.031 50.3833 36.031C50.8459 36.031 51.291 35.9132 51.7186 35.6775C52.155 35.4419 52.5477 35.1277 52.8968 34.735C53.2546 34.3423 53.547 33.9015 53.7739 33.4128C54.0008 32.9153 54.1448 32.4048 54.2059 31.8812C54.0226 31.8899 53.8524 31.903 53.6953 31.9204C53.547 31.9379 53.3811 31.9641 53.1979 31.999C53.0146 32.0252 52.779 32.0688 52.491 32.1299C52.5084 31.7634 52.6481 31.519 52.9099 31.3968C53.1717 31.2746 53.4859 31.2135 53.8524 31.2135C54.1142 31.2135 54.363 31.231 54.5986 31.2659C54.8342 31.3008 55.0568 31.3357 55.2662 31.3706C55.4844 31.4055 55.6808 31.4274 55.8553 31.4361C55.7593 31.6368 55.6633 31.759 55.5673 31.8026C55.4801 31.8375 55.3928 31.855 55.3055 31.855C55.1571 31.855 55.0175 31.8594 54.8866 31.8681C54.7644 31.8681 54.651 31.8681 54.5462 31.8681C54.4851 32.4703 54.3193 33.0463 54.0488 33.5961C53.787 34.1459 53.4466 34.639 53.0277 35.0753C52.6175 35.503 52.155 35.8433 51.6401 36.0964C51.1339 36.3495 50.6015 36.4761 50.043 36.4761Z" fill="var(--icon-fill, #F2F6EF)"/>
            <path d="M42.122 35.7298C41.7467 35.7298 41.4762 35.5989 41.3103 35.3371C41.1533 35.084 41.0747 34.7654 41.0747 34.3814C41.0747 33.9625 41.1533 33.4651 41.3103 32.8891C41.4674 32.3131 41.6725 31.7065 41.9256 31.0694C42.1874 30.4323 42.4711 29.8127 42.7765 29.2105C43.082 28.5996 43.3874 28.0454 43.6929 27.548C43.9983 27.0505 44.2776 26.6534 44.5307 26.3567C44.7925 26.06 44.9976 25.9116 45.146 25.9116C45.242 25.9116 45.3205 25.9683 45.3816 26.0818C45.4427 26.1865 45.4907 26.3174 45.5256 26.4745C45.5605 26.6229 45.578 26.7582 45.578 26.8803C45.578 27.116 45.5169 27.4258 45.3947 27.8098C45.2813 28.1851 45.1154 28.6083 44.8973 29.0796C44.6878 29.5422 44.4347 30.0134 44.138 30.4934C43.85 30.9647 43.5314 31.4185 43.1823 31.8549C42.842 32.2913 42.4798 32.6665 42.0958 32.9807C42.0434 33.2163 41.9998 33.4476 41.9649 33.6745C41.9387 33.8927 41.9256 34.1022 41.9256 34.3029C41.9256 34.6433 41.9736 34.8963 42.0696 35.0622C42.1656 35.228 42.3096 35.3109 42.5016 35.3109C42.7373 35.3109 42.9685 35.2062 43.1954 34.9967C43.4311 34.7873 43.6493 34.5254 43.85 34.2113C44.0594 33.8883 44.2383 33.5567 44.3867 33.2163L44.5831 33.3211C44.234 34.0629 43.8543 34.652 43.4442 35.0883C43.034 35.516 42.5933 35.7298 42.122 35.7298ZM42.2136 32.5356C42.5191 32.2302 42.8158 31.8811 43.1038 31.4883C43.3918 31.0869 43.658 30.6723 43.9023 30.2447C44.1554 29.8171 44.378 29.4025 44.57 29.0011C44.762 28.5996 44.9103 28.2418 45.0151 27.9276C45.1198 27.6047 45.1722 27.356 45.1722 27.1814C45.1722 27.0942 45.1591 27.0374 45.1329 27.0113C45.1154 26.9851 45.098 26.972 45.0805 26.972C45.0107 26.972 44.8885 27.0854 44.714 27.3123C44.5482 27.5305 44.3518 27.8273 44.1249 28.2025C43.898 28.5778 43.6667 29.0054 43.4311 29.4854C43.1954 29.9654 42.9685 30.4673 42.7503 30.9909C42.5409 31.5145 42.362 32.0294 42.2136 32.5356Z" fill="var(--icon-fill, #F2F6EF)"/>
            <path d="M35.9619 35.9526C35.6913 35.9526 35.4644 35.861 35.2812 35.6777C35.0892 35.5032 34.9932 35.2326 34.9932 34.8661C34.9932 34.5519 35.063 34.2159 35.2026 33.8581C35.3423 33.4915 35.5343 33.1337 35.7786 32.7846C36.023 32.4268 36.2979 32.1039 36.6033 31.8159C36.9175 31.5192 37.2448 31.2835 37.5852 31.109C37.9343 30.9344 38.279 30.8472 38.6193 30.8472C38.9597 30.8472 39.2433 30.9388 39.4703 31.1221C39.6972 31.2966 39.8106 31.5323 39.8106 31.829C39.8106 32.0472 39.7495 32.1955 39.6273 32.2741C39.5139 32.3526 39.3612 32.3919 39.1692 32.3919C39.1866 32.3221 39.1997 32.2479 39.2084 32.1694C39.2259 32.0821 39.2346 32.0035 39.2346 31.9337C39.2346 31.733 39.1866 31.5628 39.0906 31.4232C38.9946 31.2748 38.8288 31.2006 38.5932 31.2006C38.3488 31.2006 38.1001 31.2879 37.847 31.4624C37.5939 31.6283 37.3495 31.8552 37.1139 32.1432C36.8783 32.4224 36.6688 32.7279 36.4855 33.0595C36.3023 33.3912 36.1583 33.7184 36.0535 34.0414C35.9488 34.3643 35.8964 34.6523 35.8964 34.9054C35.8964 35.2457 36.0143 35.4159 36.2499 35.4159C36.4506 35.4159 36.6688 35.3243 36.9044 35.141C37.1401 34.949 37.3801 34.709 37.6244 34.421C37.8775 34.1243 38.1175 33.8188 38.3444 33.5046C38.5713 33.1904 38.7721 32.9024 38.9466 32.6406C38.9815 32.5883 39.0033 32.5621 39.0121 32.5621C39.0644 32.5708 39.1299 32.5883 39.2084 32.6144C39.2957 32.6406 39.3699 32.6755 39.431 32.7192C39.4921 32.7628 39.5226 32.8195 39.5226 32.8893C39.5226 32.9679 39.4833 33.077 39.4048 33.2166C39.3263 33.3475 39.239 33.5003 39.143 33.6748C39.047 33.8494 38.9597 34.0283 38.8812 34.2115C38.8026 34.3861 38.7633 34.5519 38.7633 34.709C38.7633 34.8399 38.7983 34.9708 38.8681 35.1017C38.9379 35.2239 39.0513 35.285 39.2084 35.285C39.4441 35.285 39.7539 35.1148 40.1379 34.7744C40.5219 34.4254 40.9103 33.9061 41.303 33.2166L41.4339 33.3475C41.2506 33.8188 41.015 34.2334 40.727 34.5912C40.439 34.949 40.1292 35.2283 39.7975 35.429C39.4746 35.6297 39.1561 35.7301 38.8419 35.7301C38.519 35.7301 38.279 35.6341 38.1219 35.4421C37.9735 35.2501 37.8993 35.0406 37.8993 34.8137C37.8993 34.7613 37.9037 34.7046 37.9124 34.6435C37.9212 34.5737 37.9299 34.5039 37.9386 34.4341C37.5633 34.9403 37.2186 35.3199 36.9044 35.573C36.599 35.8261 36.2848 35.9526 35.9619 35.9526Z" fill="var(--icon-fill, #F2F6EF)"/>
            <path d="M33.1184 35.6772C32.778 35.6772 32.5249 35.5681 32.3591 35.3499C32.1933 35.1405 32.1104 34.883 32.1104 34.5776C32.1104 34.3768 32.1453 34.1238 32.2151 33.8183C32.2936 33.5128 32.394 33.1943 32.5162 32.8627C32.6384 32.5223 32.778 32.2038 32.9351 31.907C33.1009 31.6103 33.2754 31.3703 33.4587 31.187C33.642 30.995 33.8209 30.899 33.9954 30.899C34.074 30.899 34.1394 30.9252 34.1918 30.9776C34.2529 31.0212 34.2834 31.091 34.2834 31.187C34.2834 31.2918 34.2136 31.4619 34.074 31.6976C33.9431 31.9332 33.786 32.2038 33.6027 32.5092C33.4194 32.8147 33.258 33.1376 33.1184 33.4779C32.9874 33.8096 32.922 34.1281 32.922 34.4336C32.922 34.7478 32.9744 34.9572 33.0791 35.0619C33.1838 35.1667 33.3453 35.219 33.5634 35.219C33.8602 35.219 34.1744 35.0707 34.506 34.7739C34.8464 34.4772 35.2042 33.9579 35.5794 33.2161L35.6973 33.347C35.4442 34.0976 35.0776 34.6736 34.5976 35.075C34.1264 35.4765 33.6333 35.6772 33.1184 35.6772ZM34.6893 29.6816C34.5496 29.6816 34.4231 29.6467 34.3096 29.5768C34.2049 29.507 34.1525 29.3979 34.1525 29.2496C34.1525 29.0663 34.2573 28.9092 34.4667 28.7783C34.6849 28.6387 34.8987 28.5688 35.1082 28.5688C35.2391 28.5688 35.3438 28.5994 35.4224 28.6605C35.5009 28.7216 35.5402 28.8263 35.5402 28.9747C35.5402 29.1405 35.4485 29.3019 35.2653 29.459C35.0907 29.6074 34.8987 29.6816 34.6893 29.6816Z" fill="var(--icon-fill, #F2F6EF)"/>
            <path d="M29.3446 36.0699C28.9257 36.0699 28.5766 35.9303 28.2973 35.651C28.0181 35.3717 27.8784 34.9528 27.8784 34.3943C27.8784 33.9579 27.9613 33.5347 28.1271 33.1245C28.3017 32.7056 28.5286 32.3303 28.8079 31.9987C29.0871 31.667 29.397 31.4052 29.7373 31.2132C30.0777 31.0125 30.4137 30.9121 30.7453 30.9121C31.1031 30.9121 31.3475 31.0168 31.4784 31.2263C31.6093 31.4357 31.6748 31.6539 31.6748 31.8808C31.6748 32.1339 31.6137 32.3565 31.4915 32.5485C31.3781 32.7405 31.221 32.8365 31.0202 32.8365C30.8719 32.8365 30.7453 32.771 30.6406 32.6401C30.7715 32.5703 30.885 32.4307 30.981 32.2212C31.077 32.003 31.125 31.7979 31.125 31.6059C31.125 31.5012 31.1031 31.4227 31.0595 31.3703C31.0246 31.3092 30.9504 31.2787 30.837 31.2787C30.6013 31.2787 30.357 31.3834 30.1039 31.5928C29.8595 31.8023 29.6282 32.0728 29.4101 32.4045C29.2006 32.7361 29.0261 33.0852 28.8864 33.4517C28.7555 33.8183 28.6901 34.163 28.6901 34.4859C28.6901 34.7565 28.7555 35.0052 28.8864 35.2321C29.0173 35.459 29.2704 35.5725 29.6457 35.5725C29.9948 35.5725 30.3439 35.4765 30.693 35.2845C31.0508 35.0925 31.3824 34.8176 31.6879 34.4597C31.9933 34.1019 32.2377 33.683 32.421 33.203L32.5911 33.3339C32.3904 33.8576 32.1155 34.3288 31.7664 34.7477C31.4173 35.1579 31.0333 35.4808 30.6144 35.7165C30.1955 35.9521 29.7722 36.0699 29.3446 36.0699Z" fill="var(--icon-fill, #F2F6EF)"/>
            <path d="M22.8706 35.9526C22.6 35.9526 22.3731 35.861 22.1899 35.6777C21.9979 35.5032 21.9019 35.2326 21.9019 34.8661C21.9019 34.5519 21.9717 34.2159 22.1113 33.8581C22.2509 33.4915 22.4429 33.1337 22.6873 32.7846C22.9317 32.4268 23.2066 32.1039 23.512 31.8159C23.8262 31.5192 24.1535 31.2835 24.4939 31.109C24.8429 30.9344 25.1877 30.8472 25.528 30.8472C25.8684 30.8472 26.152 30.9388 26.3789 31.1221C26.6059 31.2966 26.7193 31.5323 26.7193 31.829C26.7193 32.0472 26.6582 32.1955 26.536 32.2741C26.4226 32.3526 26.2699 32.3919 26.0779 32.3919C26.0953 32.3221 26.1084 32.2479 26.1171 32.1694C26.1346 32.0821 26.1433 32.0035 26.1433 31.9337C26.1433 31.733 26.0953 31.5628 25.9993 31.4232C25.9033 31.2748 25.7375 31.2006 25.5019 31.2006C25.2575 31.2006 25.0088 31.2879 24.7557 31.4624C24.5026 31.6283 24.2582 31.8552 24.0226 32.1432C23.7869 32.4224 23.5775 32.7279 23.3942 33.0595C23.2109 33.3912 23.0669 33.7184 22.9622 34.0414C22.8575 34.3643 22.8051 34.6523 22.8051 34.9054C22.8051 35.2457 22.9229 35.4159 23.1586 35.4159C23.3593 35.4159 23.5775 35.3243 23.8131 35.141C24.0488 34.949 24.2888 34.709 24.5331 34.421C24.7862 34.1243 25.0262 33.8188 25.2531 33.5046C25.48 33.1904 25.6808 32.9024 25.8553 32.6406C25.8902 32.5883 25.912 32.5621 25.9208 32.5621C25.9731 32.5708 26.0386 32.5883 26.1171 32.6144C26.2044 32.6406 26.2786 32.6755 26.3397 32.7192C26.4008 32.7628 26.4313 32.8195 26.4313 32.8893C26.4313 32.9679 26.392 33.077 26.3135 33.2166C26.2349 33.3475 26.1477 33.5003 26.0517 33.6748C25.9557 33.8494 25.8684 34.0283 25.7899 34.2115C25.7113 34.3861 25.672 34.5519 25.672 34.709C25.672 34.8399 25.7069 34.9708 25.7768 35.1017C25.8466 35.2239 25.96 35.285 26.1171 35.285C26.3528 35.285 26.6626 35.1148 27.0466 34.7744C27.4306 34.4254 27.8189 33.9061 28.2117 33.2166L28.3426 33.3475C28.1593 33.8188 27.9237 34.2334 27.6357 34.5912C27.3477 34.949 27.0379 35.2283 26.7062 35.429C26.3833 35.6297 26.0648 35.7301 25.7506 35.7301C25.4277 35.7301 25.1877 35.6341 25.0306 35.4421C24.8822 35.2501 24.808 35.0406 24.808 34.8137C24.808 34.7613 24.8124 34.7046 24.8211 34.6435C24.8299 34.5737 24.8386 34.5039 24.8473 34.4341C24.472 34.9403 24.1273 35.3199 23.8131 35.573C23.5077 35.8261 23.1935 35.9526 22.8706 35.9526Z" fill="var(--icon-fill, #F2F6EF)"/>
            <path d="M18.4666 36.476C18.0652 36.4411 17.8165 36.332 17.7205 36.1487C17.6245 35.9654 17.5765 35.7298 17.5765 35.4418C17.5765 35.1276 17.6419 34.7436 17.7728 34.2898C17.9037 33.8272 18.0652 33.3254 18.2572 32.7843C18.4579 32.2432 18.6586 31.7021 18.8594 31.1611C18.7546 31.1698 18.6412 31.1829 18.519 31.2003C18.4055 31.2091 18.2615 31.2265 18.087 31.2527C17.9125 31.2701 17.6855 31.3007 17.4063 31.3443C17.4237 31.1174 17.5066 30.9429 17.655 30.8207C17.8121 30.6898 18.0172 30.5938 18.2703 30.5327C18.5234 30.4716 18.807 30.4367 19.1212 30.428C19.3655 29.756 19.6143 29.1014 19.8674 28.4643C20.1292 27.8185 20.3866 27.2294 20.6397 26.6971C20.5525 26.6883 20.4652 26.684 20.3779 26.684C20.2994 26.6752 20.2165 26.6709 20.1292 26.6709C19.5706 26.6709 19.1386 26.7276 18.8332 26.8411C18.5277 26.9545 18.3183 27.1291 18.2048 27.3647C18.0914 27.6003 18.0346 27.9014 18.0346 28.268C18.0346 28.46 18.0477 28.6389 18.0739 28.8047C18.1001 28.9618 18.1437 29.1276 18.2048 29.3021C17.9081 29.2498 17.6899 29.1363 17.5503 28.9618C17.4106 28.7785 17.3408 28.5516 17.3408 28.2811C17.3408 27.8272 17.5023 27.4301 17.8252 27.0898C18.1481 26.7407 18.5801 26.4701 19.1212 26.2781C19.671 26.0774 20.2775 25.9771 20.9408 25.9771C21.4034 25.9771 21.8485 26.012 22.2761 26.0818C22.7125 26.1429 23.1357 26.1734 23.5459 26.1734C23.7292 26.1734 23.895 26.1647 24.0434 26.1472C24.2005 26.1211 24.3575 26.0861 24.5146 26.0425C24.1917 26.4091 23.9212 26.6534 23.703 26.7756C23.4848 26.8978 23.2623 26.9589 23.0354 26.9589C22.8346 26.9589 22.5728 26.9327 22.2499 26.8803C21.9357 26.8192 21.5779 26.7712 21.1765 26.7363C21.063 27.0243 20.9365 27.3734 20.7968 27.7836C20.6572 28.1851 20.5132 28.6171 20.3648 29.0796C20.2165 29.5334 20.0681 29.9872 19.9197 30.4411C20.3561 30.4672 20.7663 30.5065 21.1503 30.5589C21.543 30.6112 21.8965 30.6418 22.2106 30.6505C22.1408 30.7552 22.0579 30.8381 21.9619 30.8992C21.8746 30.9516 21.7481 30.9909 21.5823 31.0171C21.4165 31.0432 21.1852 31.0651 20.8885 31.0825C20.6005 31.0912 20.2121 31.1 19.7234 31.1087C19.671 31.292 19.6055 31.5101 19.527 31.7632C19.4485 32.0163 19.3786 32.2563 19.3175 32.4832C19.2565 32.7101 19.2085 32.876 19.1735 32.9807C18.9815 33.6527 18.8157 34.2811 18.6761 34.8658C18.5452 35.4505 18.4754 35.9872 18.4666 36.476Z" fill="var(--icon-fill, #F2F6EF)"/>
        </svg>
    </symbol>

    <symbol id="inspired01" viewBox="0 0 62 65">
        <svg width="62" height="65" viewBox="0 0 62 65" fill="none" xmlns="http://www.w3.org/2000/svg">
            <path fill-rule="evenodd" clip-rule="evenodd" d="M27.2572 2.10876L22.1398 5.82684H15.8145C13.0898 5.82684 10.675 7.58123 9.83316 10.1725L7.87839 16.1883L2.76117 19.9064C0.556758 21.5078 -0.365539 24.3466 0.476522 26.9378L2.43108 32.9537L0.476522 38.9695C-0.365539 41.5607 0.556758 44.3993 2.76117 46.0009L7.87839 49.7188L9.83316 55.7346C10.675 58.3259 13.0898 60.0805 15.8145 60.0805H22.1398L27.2572 63.7984C29.4615 65.4 32.4462 65.4 34.6506 63.7984L39.7678 60.0805H46.0934C48.8179 60.0805 51.2326 58.3259 52.0747 55.7346L54.0292 49.7188L59.1467 46.0009C61.3509 44.3993 62.2732 41.5607 61.4313 38.9695L59.4766 32.9537L61.4313 26.9378C62.2732 24.3466 61.3509 21.5078 59.1467 19.9064L54.0292 16.1883L52.0747 10.1725C51.2326 7.58123 48.8179 5.82684 46.0934 5.82684H39.7678L34.6506 2.10876C32.4462 0.507367 29.4615 0.507367 27.2572 2.10876ZM28.2754 3.51019C29.8726 2.34988 32.0352 2.34988 33.6323 3.51019C36.0562 5.27122 38.9773 7.39373 38.9773 7.39373C39.1253 7.5012 39.3037 7.55898 39.4866 7.55898H46.0934C48.0675 7.55898 49.8171 8.83029 50.4271 10.7077C51.353 13.5574 52.4688 16.9913 52.4688 16.9913C52.5253 17.1653 52.6355 17.3168 52.7835 17.4243C52.7835 17.4243 55.7046 19.5466 58.1286 21.3078C59.7256 22.4681 60.3939 24.5249 59.7838 26.4026C58.858 29.252 57.7423 32.6859 57.7423 32.6859C57.6858 32.8599 57.6858 33.0474 57.7423 33.2212C57.7423 33.2212 58.858 36.6553 59.7838 39.5047C60.3939 41.3824 59.7256 43.4392 58.1286 44.5995C55.7046 46.3606 52.7835 48.4829 52.7835 48.4829C52.6355 48.5903 52.5253 48.7421 52.4688 48.916C52.4688 48.916 51.353 52.35 50.4271 55.1994C49.8171 57.077 48.0675 58.3481 46.0934 58.3481C43.0972 58.3481 39.4866 58.3481 39.4866 58.3481C39.3037 58.3481 39.1253 58.4061 38.9773 58.5136C38.9773 58.5136 36.0562 60.6359 33.6323 62.3969C32.0352 63.5574 29.8726 63.5574 28.2754 62.3969C25.8515 60.6359 22.9303 58.5136 22.9303 58.5136C22.7823 58.4061 22.6042 58.3481 22.4213 58.3481C22.4213 58.3481 18.8106 58.3481 15.8145 58.3481C13.8402 58.3481 12.0906 57.077 11.4805 55.1994C10.5547 52.35 9.43884 48.916 9.43884 48.916C9.38251 48.7421 9.27234 48.5903 9.12434 48.4829C9.12434 48.4829 6.20321 46.3606 3.77929 44.5995C2.18206 43.4392 1.51377 41.3824 2.12385 39.5047C3.04969 36.6553 4.16551 33.2212 4.16551 33.2212C4.22204 33.0474 4.22204 32.8599 4.16551 32.6859C4.16551 32.6859 3.04969 29.252 2.12385 26.4026C1.51377 24.5249 2.18206 22.4681 3.77929 21.3078C6.20321 19.5466 9.12434 17.4243 9.12434 17.4243C9.27234 17.3168 9.38251 17.1653 9.43884 16.9913C9.43884 16.9913 10.5547 13.5574 11.4805 10.7077C12.0906 8.83029 13.8402 7.55898 15.8145 7.55898H22.4213C22.6042 7.55898 22.7823 7.5012 22.9303 7.39373L28.2754 3.51019Z" fill="#899F87"/>
            <path fill-rule="evenodd" clip-rule="evenodd" d="M22.2719 25.0886C23.7045 29.4155 27.9083 32.3335 32.9534 31.0402C36.7414 30.0692 39.237 27.4035 40.849 24.5311C43.1966 20.3478 43.6473 15.7546 43.6473 15.7546C43.6784 15.4384 43.534 15.1306 43.2708 14.9526C43.0077 14.7745 42.6682 14.7547 42.3861 14.9011C39.3688 16.468 36.8295 16.1294 34.3538 15.7831C32.5107 15.5249 30.6968 15.2615 28.7745 15.5744C25.6382 16.0847 23.5723 18.3304 22.6323 20.6673C21.9858 22.2745 21.885 23.9204 22.2717 25.0886H22.2719ZM23.9161 24.5442C23.6332 23.689 23.7662 22.4898 24.2393 21.3137C24.9789 19.4754 26.5853 17.6854 29.0526 17.284C31.2633 16.9242 33.3157 17.4312 35.4626 17.6734C37.4155 17.8937 39.4365 17.922 41.6817 17.1024C41.3713 18.6807 40.7002 21.2566 39.3384 23.6834C37.9409 26.1734 35.8072 28.5204 32.5234 29.3623C28.4536 30.4055 25.0718 28.0344 23.9163 24.5442H23.9161Z" fill="#899F87"/>
            <path fill-rule="evenodd" clip-rule="evenodd" d="M15.4974 23.9383C18.3378 25.037 20.9509 25.5554 23.321 25.6779C29.1639 25.9803 33.5434 23.8809 36.244 22.0346C36.6385 21.7648 36.7399 21.2254 36.4701 20.8309C36.2003 20.4361 35.6609 20.3349 35.2664 20.6047C32.7886 22.2986 28.771 24.2253 23.4104 23.948C21.2024 23.8339 18.7688 23.3463 16.1222 22.3227C15.6766 22.1502 15.1746 22.3722 15.002 22.8181C14.8297 23.2639 15.0515 23.7659 15.4974 23.9383Z" fill="#899F87"/>
            <path fill-rule="evenodd" clip-rule="evenodd" d="M11.6827 40.4318L14.1824 39.1294V48.4889C14.1824 48.967 14.5705 49.3551 15.0484 49.3551C15.5265 49.3551 15.9146 48.967 15.9146 48.4889V37.7015C15.9146 37.3989 15.7566 37.1181 15.4976 36.9611C15.2388 36.804 14.9168 36.7936 14.6483 36.9335L10.8822 38.8955C10.4583 39.1165 10.2935 39.6399 10.5142 40.0637C10.7352 40.4878 11.2586 40.6526 11.6827 40.4318Z" fill="#899F87"/>
            <path fill-rule="evenodd" clip-rule="evenodd" d="M48.5254 37.6383L40.685 47.4818C40.3873 47.8557 40.449 48.4012 40.823 48.699C41.1967 48.9967 41.7422 48.935 42.04 48.561L49.8803 38.7176C50.1782 38.3436 50.1164 37.7984 49.7425 37.5005C49.3685 37.2026 48.8231 37.2646 48.5254 37.6383Z" fill="#899F87"/>
            <path fill-rule="evenodd" clip-rule="evenodd" d="M41.949 36.7808C40.8575 36.7808 39.9712 37.6671 39.9712 38.7586C39.9712 39.8501 40.8575 40.7364 41.949 40.7364C43.0405 40.7364 43.9269 39.8501 43.9269 38.7586C43.9269 37.6671 43.0405 36.7808 41.949 36.7808ZM41.949 38.5131C42.0846 38.5131 42.1945 38.6231 42.1945 38.7586C42.1945 38.8941 42.0846 39.0041 41.949 39.0041C41.8135 39.0041 41.7035 38.8941 41.7035 38.7586C41.7035 38.6231 41.8135 38.5131 41.949 38.5131Z" fill="#899F87"/>
            <path fill-rule="evenodd" clip-rule="evenodd" d="M48.4288 45.2837C47.3373 45.2837 46.4509 46.1698 46.4509 47.2613C46.4509 48.353 47.3373 49.2392 48.4288 49.2392C49.5203 49.2392 50.4066 48.353 50.4066 47.2613C50.4066 46.1698 49.5203 45.2837 48.4288 45.2837ZM48.4288 47.0158C48.5643 47.0158 48.6743 47.1258 48.6743 47.2613C48.6743 47.3968 48.5643 47.507 48.4288 47.507C48.2932 47.507 48.1833 47.3968 48.1833 47.2613C48.1833 47.1258 48.2932 47.0158 48.4288 47.0158Z" fill="#899F87"/>
            <path fill-rule="evenodd" clip-rule="evenodd" d="M26.4302 45.3193V40.8714C26.4302 38.6424 24.6232 36.8354 22.3943 36.8354C22.3943 36.8354 22.3943 36.8354 22.3941 36.8354C20.1654 36.8354 18.3584 38.6424 18.3584 40.8714V45.3193C18.3584 47.5482 20.1654 49.3552 22.3941 49.3552H22.3943C24.6232 49.3552 26.4302 47.5482 26.4302 45.3193ZM24.6979 40.8714V45.3193C24.6979 46.5916 23.6667 47.623 22.3943 47.623H22.3941C21.122 47.623 20.0905 46.5916 20.0905 45.3195C20.0905 45.3193 20.0905 40.8714 20.0905 40.8714C20.0905 39.599 21.122 38.5678 22.3941 38.5678H22.3943C23.6667 38.5678 24.6979 39.599 24.6979 40.8714Z" fill="#899F87"/>
            <path fill-rule="evenodd" clip-rule="evenodd" d="M36.9454 45.3193V40.8714C36.9454 38.6424 35.1386 36.8354 32.9097 36.8354H32.9094C30.6805 36.8354 28.8737 38.6424 28.8735 40.8714V45.3193C28.8737 47.5482 30.6805 49.3552 32.9094 49.3552H32.9097C35.1386 49.3552 36.9454 47.5482 36.9454 45.3193ZM35.2132 40.8714V45.3193C35.2132 46.5916 34.1818 47.623 32.9097 47.623H32.9094C31.6373 47.623 30.6059 46.5916 30.6059 45.3195C30.6059 45.3193 30.6059 40.8714 30.6059 40.8714C30.6059 39.599 31.6373 38.5678 32.9094 38.5678H32.9097C34.1818 38.5678 35.2132 39.599 35.2132 40.8714Z" fill="#899F87"/>
        </svg>
    </symbol>

    <symbol id="inspired02" viewBox="0 0 74 74">
        <svg width="74" height="74" viewBox="0 0 74 74" fill="none" xmlns="http://www.w3.org/2000/svg">
            <g clip-path="url(#clip0_4602_58448)">
                <path fill-rule="evenodd" clip-rule="evenodd" d="M20.1142 31.2578C16.1741 31.2578 12.9697 34.4622 12.9697 38.4019L12.9699 65.2402C12.9699 69.18 16.1741 72.3843 20.1138 72.3843H37.0111C40.9506 72.3843 44.155 69.18 44.155 65.2402L44.1553 38.4019C44.1553 34.4622 40.9506 31.2578 37.0109 31.2578H20.1142ZM37.0111 74.0001H20.1142C15.2838 74.0001 11.354 70.0702 11.354 65.2402V38.4019C11.354 33.5718 15.2838 29.6421 20.1138 29.6421H37.0111C41.8409 29.6421 45.7707 33.5718 45.7707 38.4019V65.2402C45.7707 70.0702 41.8409 74.0001 37.0111 74.0001Z" fill="#899F87"/>
                <path fill-rule="evenodd" clip-rule="evenodd" d="M20.8833 45.9403C19.8078 45.9403 18.9325 46.8155 18.9325 47.8908L18.9328 55.752C18.9328 56.8273 19.8077 57.7025 20.8831 57.7025H36.242C37.3174 57.7025 38.1923 56.8273 38.1923 55.752L38.1926 47.8908C38.1926 46.8153 37.3172 45.9403 36.2418 45.9403H20.8833ZM36.242 59.3181H20.8833C18.9176 59.3181 17.3169 57.7177 17.3169 55.752L17.3171 47.8908C17.3171 45.9251 18.9174 44.3247 20.8831 44.3247H36.242C38.2076 44.3247 39.808 45.9251 39.808 47.8908L39.8084 55.752C39.8084 57.7177 38.2075 59.3181 36.242 59.3181Z" fill="#899F87"/>
                <path fill-rule="evenodd" clip-rule="evenodd" d="M35.3667 31.2579C34.9207 31.2579 34.5586 30.896 34.5586 30.4499V15.8301H22.5644V30.4499C22.5644 30.896 22.204 31.2579 21.7564 31.2579C21.3107 31.2579 20.9485 30.896 20.9485 30.4499L20.9487 15.0223C20.9487 14.5763 21.3104 14.2144 21.7564 14.2144H35.3667C35.8143 14.2144 36.1743 14.5763 36.1743 15.0223L36.1745 30.4499C36.1745 30.896 35.8141 31.2579 35.3667 31.2579Z" fill="#899F87"/>
                <path fill-rule="evenodd" clip-rule="evenodd" d="M35.3683 20.9736H21.7568C21.3107 20.9736 20.9485 20.6118 20.9485 20.1657C20.9487 19.7181 21.3104 19.3579 21.7564 19.3579H35.3683C35.8143 19.3579 36.176 19.7181 36.176 20.1657C36.176 20.6118 35.8141 20.9736 35.3683 20.9736Z" fill="#899F87"/>
                <path fill-rule="evenodd" clip-rule="evenodd" d="M35.3683 26.1146H21.7568C21.3107 26.1146 20.9485 25.7529 20.9485 25.3068C20.9487 24.8608 21.3104 24.499 21.7564 24.499H35.3683C35.8143 24.499 36.176 24.8608 36.176 25.3068C36.176 25.7529 35.8141 26.1146 35.3683 26.1146Z" fill="#899F87"/>
                <path fill-rule="evenodd" clip-rule="evenodd" d="M44.559 17.6664C44.2023 17.6681 43.8757 17.4291 43.7781 17.0689L40.7927 5.92431C40.4191 4.52912 40.4928 3.23653 41.0061 2.18652C41.5061 1.16654 42.3964 0.439503 43.5138 0.140084C44.6331 -0.159677 45.7673 0.0255394 46.7098 0.658349C47.6792 1.3096 48.3894 2.39341 48.763 3.7886L51.7487 14.9332C51.865 15.3641 51.6089 15.8067 51.178 15.9211C50.7475 16.0373 50.3045 15.7814 50.1884 15.3506L47.2028 4.20598C46.932 3.19283 46.4489 2.43046 45.8076 1.99976C45.2508 1.62438 44.6027 1.52178 43.9329 1.70188C43.2632 1.88027 42.7531 2.29423 42.457 2.89666C42.1188 3.59007 42.0816 4.49208 42.3542 5.50523L45.3399 16.6498C45.4546 17.0807 45.1985 17.5233 44.7676 17.6394C44.6987 17.6578 44.6278 17.6664 44.559 17.6664Z" fill="#899F87"/>
                <path fill-rule="evenodd" clip-rule="evenodd" d="M44.2493 16.9426H44.2512H44.2493ZM52.2805 15.7343C52.0214 15.7343 51.7537 15.768 51.4878 15.8386L44.4584 17.7219C43.189 18.0634 42.3307 19.1524 42.5849 20.1017L43.9014 25.0158L55.6161 21.8755L54.3003 16.9612C54.0999 16.2123 53.2532 15.7343 52.2805 15.7343ZM43.3307 26.8117C43.189 26.8117 43.0494 26.7763 42.9265 26.7039C42.7399 26.5962 42.605 26.4211 42.5495 26.2142L41.0231 20.5191C40.5354 18.693 41.8881 16.7391 44.0407 16.1618L51.0687 14.2785C53.223 13.7012 55.372 14.7178 55.8618 16.5438L57.3867 22.2374C57.5026 22.6681 57.2469 23.1124 56.816 23.2268L43.5393 26.7847C43.4703 26.8031 43.3993 26.8117 43.3307 26.8117Z" fill="#899F87"/>
                <path fill-rule="evenodd" clip-rule="evenodd" d="M58.4167 56.5632C58.1674 56.5632 57.9284 56.4487 57.7736 56.245L53.5947 50.7536C53.536 50.6745 53.4921 50.5869 53.4634 50.4944L45.9827 25.3155C45.8549 24.8881 46.0988 24.4388 46.5263 24.3124C46.9556 24.1846 47.4049 24.4287 47.531 24.8561L54.9701 49.8918L57.8646 53.697L58.4689 48.9545L52.3933 23.5535C52.2905 23.1192 52.558 22.6834 52.9906 22.5791C53.425 22.4763 53.8607 22.744 53.965 23.1783L60.0746 48.7221C60.098 48.8165 60.1027 48.9157 60.091 49.0117L59.2176 55.858C59.1755 56.1829 58.9416 56.4521 58.6251 56.5362C58.5563 56.5547 58.4855 56.5632 58.4167 56.5632Z" fill="#899F87"/>
                <path fill-rule="evenodd" clip-rule="evenodd" d="M58.4083 63.729C58.3644 63.8164 58.3188 63.9057 58.2734 63.9965C57.4151 65.7013 55.6293 69.249 55.8111 70.2251H55.8115C56.0455 71.4772 57.1408 72.3843 58.4165 72.3843C59.7075 72.3843 60.8045 71.4639 61.0266 70.1948C61.1734 69.3517 59.4313 65.809 58.5949 64.1059C58.531 63.978 58.4685 63.8517 58.4083 63.729ZM58.4166 74.0001C56.3635 74.0001 54.6012 72.5374 54.2241 70.5229H54.2244C53.9615 69.1211 55.1935 66.5226 56.8311 63.2694C57.1879 62.5608 57.4958 61.9466 57.6759 61.5376C57.8055 61.2449 58.095 61.0547 58.4165 61.0547C58.7362 61.0547 59.0272 61.2449 59.1553 61.5376C59.3572 61.9972 59.6753 62.6435 60.0438 63.3939C61.6898 66.7414 62.8391 69.2087 62.6187 70.4726C62.2604 72.5173 60.4931 74.0001 58.4166 74.0001Z" fill="#899F87"/>
            </g>
            <defs>
                <clipPath id="clip0_4602_58448">
                    <rect width="74" height="74" fill="white"/>
                </clipPath>
            </defs>
        </svg>

    </symbol>

    <symbol id="inspired03" viewBox="0 0 74 74">
        <svg width="74" height="74" viewBox="0 0 74 74" fill="none" xmlns="http://www.w3.org/2000/svg">
            <path d="M73.1328 42.5825H0.867188C0.637195 42.5825 0.416623 42.4912 0.253993 42.3285C0.0913641 42.1659 0 41.9453 0 41.7153C0 41.4853 0.0913641 41.2648 0.253993 41.1021C0.416623 40.9395 0.637195 40.8481 0.867188 40.8481H73.1328C73.3628 40.8481 73.5834 40.9395 73.746 41.1021C73.9086 41.2648 74 41.4853 74 41.7153C74 41.9453 73.9086 42.1659 73.746 42.3285C73.5834 42.4912 73.3628 42.5825 73.1328 42.5825Z" fill="#899F87"/>
            <path d="M73.1328 51.8325H0.867188C0.637195 51.8325 0.416623 51.7412 0.253993 51.5785C0.0913641 51.4159 0 51.1953 0 50.9653C0 50.7353 0.0913641 50.5148 0.253993 50.3521C0.416623 50.1895 0.637195 50.0981 0.867188 50.0981H73.1328C73.3628 50.0981 73.5834 50.1895 73.746 50.3521C73.9086 50.5148 74 50.7353 74 50.9653C74 51.1953 73.9086 51.4159 73.746 51.5785C73.5834 51.7412 73.3628 51.8325 73.1328 51.8325Z" fill="#899F87"/>
            <path d="M9.23609 64.1382C8.55003 64.1382 7.87938 63.9347 7.30895 63.5536C6.73852 63.1724 6.29392 62.6307 6.03138 61.9969C5.76884 61.363 5.70014 60.6656 5.83399 59.9927C5.96783 59.3198 6.2982 58.7018 6.78331 58.2167C7.26842 57.7315 7.88649 57.4012 8.55937 57.2673C9.23224 57.1335 9.92969 57.2022 10.5635 57.4647C11.1973 57.7273 11.7391 58.1719 12.1202 58.7423C12.5014 59.3127 12.7048 59.9834 12.7048 60.6694C12.704 61.5891 12.3383 62.4709 11.6879 63.1213C11.0376 63.7716 10.1558 64.1373 9.23609 64.1382ZM9.23609 58.9368C8.89306 58.9368 8.55773 59.0385 8.27252 59.2291C7.9873 59.4197 7.765 59.6905 7.63373 60.0075C7.50246 60.3244 7.46811 60.6731 7.53504 61.0095C7.60196 61.346 7.76714 61.655 8.0097 61.8976C8.25225 62.1401 8.56129 62.3053 8.89773 62.3722C9.23416 62.4391 9.58289 62.4048 9.8998 62.2735C10.2167 62.1423 10.4876 61.92 10.6782 61.6347C10.8687 61.3495 10.9705 61.0142 10.9705 60.6712C10.9705 60.2112 10.7877 59.77 10.4625 59.4448C10.1372 59.1195 9.69607 58.9368 9.23609 58.9368Z" fill="#899F87"/>
            <path d="M18.5 72.9336C17.8139 72.9336 17.1433 72.7302 16.5729 72.349C16.0024 71.9679 15.5578 71.4261 15.2953 70.7923C15.0328 70.1584 14.9641 69.461 15.0979 68.7881C15.2317 68.1153 15.5621 67.4972 16.0472 67.0121C16.5323 66.527 17.1504 66.1966 17.8233 66.0627C18.4962 65.9289 19.1936 65.9976 19.8274 66.2601C20.4613 66.5227 21.003 66.9673 21.3842 67.5377C21.7653 68.1081 21.9688 68.7788 21.9688 69.4648C21.9679 70.3846 21.6022 71.2664 20.9518 71.9167C20.3015 72.567 19.4197 72.9328 18.5 72.9336ZM18.5 67.7305C18.157 67.7305 17.8217 67.8322 17.5364 68.0228C17.2512 68.2133 17.0289 68.4842 16.8976 68.8011C16.7664 69.118 16.732 69.4668 16.799 69.8032C16.8659 70.1396 17.0311 70.4487 17.2736 70.6912C17.5162 70.9338 17.8252 71.099 18.1616 71.1659C18.4981 71.2328 18.8468 71.1985 19.1637 71.0672C19.4806 70.9359 19.7515 70.7136 19.9421 70.4284C20.1327 70.1432 20.2344 69.8079 20.2344 69.4648C20.234 69.0051 20.0511 68.5643 19.7259 68.2394C19.4007 67.9144 18.9597 67.7319 18.5 67.7319V67.7305Z" fill="#899F87"/>
            <path d="M37 72.9336C36.3139 72.9336 35.6433 72.7302 35.0729 72.349C34.5024 71.9679 34.0578 71.4261 33.7953 70.7923C33.5328 70.1584 33.4641 69.461 33.5979 68.7881C33.7317 68.1153 34.0621 67.4972 34.5472 67.0121C35.0323 66.527 35.6504 66.1966 36.3233 66.0627C36.9962 65.9289 37.6936 65.9976 38.3274 66.2601C38.9613 66.5227 39.503 66.9673 39.8842 67.5377C40.2653 68.1081 40.4688 68.7788 40.4688 69.4648C40.4679 70.3846 40.1022 71.2664 39.4519 71.9167C38.8015 72.567 37.9197 72.9328 37 72.9336ZM37 67.7305C36.657 67.7305 36.3217 67.8322 36.0364 68.0228C35.7512 68.2133 35.5289 68.4842 35.3976 68.8011C35.2664 69.118 35.232 69.4668 35.299 69.8032C35.3659 70.1396 35.5311 70.4487 35.7736 70.6912C36.0162 70.9338 36.3252 71.099 36.6616 71.1659C36.9981 71.2328 37.3468 71.1985 37.6637 71.0672C37.9806 70.9359 38.2515 70.7136 38.4421 70.4284C38.6327 70.1432 38.7344 69.8079 38.7344 69.4648C38.734 69.0051 38.5511 68.5643 38.2259 68.2394C37.9007 67.9144 37.4597 67.7319 37 67.7319V67.7305Z" fill="#899F87"/>
            <path d="M55.5 72.9336C54.8139 72.9336 54.1433 72.7302 53.5729 72.349C53.0024 71.9679 52.5578 71.4261 52.2953 70.7923C52.0328 70.1584 51.9641 69.461 52.0979 68.7881C52.2317 68.1153 52.5621 67.4972 53.0472 67.0121C53.5323 66.527 54.1504 66.1966 54.8233 66.0627C55.4962 65.9289 56.1936 65.9976 56.8274 66.2601C57.4613 66.5227 58.003 66.9673 58.3842 67.5377C58.7653 68.1081 58.9688 68.7788 58.9688 69.4648C58.9679 70.3846 58.6022 71.2664 57.9518 71.9167C57.3015 72.567 56.4197 72.9328 55.5 72.9336ZM55.5 67.7305C55.157 67.7305 54.8217 67.8322 54.5364 68.0228C54.2512 68.2133 54.0289 68.4842 53.8976 68.8011C53.7664 69.118 53.732 69.4668 53.799 69.8032C53.8659 70.1396 54.0311 70.4487 54.2736 70.6912C54.5162 70.9338 54.8252 71.099 55.1616 71.1659C55.4981 71.2328 55.8468 71.1985 56.1637 71.0672C56.4806 70.9359 56.7515 70.7136 56.9421 70.4284C57.1327 70.1432 57.2344 69.8079 57.2344 69.4648C57.234 69.0051 57.0511 68.5643 56.7259 68.2394C56.4007 67.9144 55.9597 67.7319 55.5 67.7319V67.7305Z" fill="#899F87"/>
            <path d="M27.75 64.1382C27.0639 64.1382 26.3933 63.9347 25.8229 63.5536C25.2524 63.1724 24.8078 62.6307 24.5453 61.9969C24.2828 61.363 24.2141 60.6656 24.3479 59.9927C24.4817 59.3198 24.8121 58.7018 25.2972 58.2167C25.7823 57.7315 26.4004 57.4012 27.0733 57.2673C27.7462 57.1335 28.4436 57.2022 29.0774 57.4647C29.7113 57.7273 30.253 58.1719 30.6342 58.7423C31.0153 59.3127 31.2188 59.9834 31.2188 60.6694C31.2179 61.5891 30.8522 62.4709 30.2018 63.1213C29.5515 63.7716 28.6697 64.1373 27.75 64.1382ZM27.75 58.9368C27.407 58.9368 27.0717 59.0385 26.7864 59.2291C26.5012 59.4197 26.2789 59.6905 26.1476 60.0075C26.0164 60.3244 25.982 60.6731 26.049 61.0095C26.1159 61.346 26.2811 61.655 26.5236 61.8976C26.7662 62.1401 27.0752 62.3053 27.4116 62.3722C27.7481 62.4391 28.0968 62.4048 28.4137 62.2735C28.7306 62.1423 29.0015 61.92 29.1921 61.6347C29.3827 61.3495 29.4844 61.0142 29.4844 60.6712C29.4844 60.2112 29.3016 59.77 28.9764 59.4448C28.6511 59.1195 28.21 58.9368 27.75 58.9368Z" fill="#899F87"/>
            <path d="M46.2639 64.1382C45.5779 64.1382 44.9072 63.9347 44.3368 63.5536C43.7664 63.1724 43.3218 62.6307 43.0592 61.9969C42.7967 61.363 42.728 60.6656 42.8618 59.9927C42.9957 59.3198 43.326 58.7018 43.8111 58.2167C44.2963 57.7315 44.9143 57.4012 45.5872 57.2673C46.2601 57.1335 46.9575 57.2022 47.5913 57.4647C48.2252 57.7273 48.7669 58.1719 49.1481 58.7423C49.5292 59.3127 49.7327 59.9834 49.7327 60.6694C49.7318 61.5891 49.3661 62.4709 48.7158 63.1213C48.0654 63.7716 47.1836 64.1373 46.2639 64.1382ZM46.2639 58.9368C45.9209 58.9368 45.5856 59.0385 45.3004 59.2291C45.0151 59.4197 44.7928 59.6905 44.6616 60.0075C44.5303 60.3244 44.4959 60.6731 44.5629 61.0095C44.6298 61.346 44.795 61.655 45.0375 61.8976C45.2801 62.1401 45.5891 62.3053 45.9256 62.3722C46.262 62.4391 46.6107 62.4048 46.9276 62.2735C47.2445 62.1423 47.5154 61.92 47.706 61.6347C47.8966 61.3495 47.9983 61.0142 47.9983 60.6712C47.9983 60.2112 47.8156 59.77 47.4903 59.4448C47.165 59.1195 46.7239 58.9368 46.2639 58.9368Z" fill="#899F87"/>
            <path d="M64.7788 64.1382C64.0928 64.1382 63.4221 63.9347 62.8517 63.5536C62.2812 63.1724 61.8366 62.6307 61.5741 61.9969C61.3116 61.363 61.2429 60.6656 61.3767 59.9927C61.5106 59.3198 61.8409 58.7018 62.326 58.2167C62.8111 57.7315 63.4292 57.4012 64.1021 57.2673C64.775 57.1335 65.4724 57.2022 66.1062 57.4647C66.7401 57.7273 67.2818 58.1719 67.663 58.7423C68.0441 59.3127 68.2476 59.9834 68.2476 60.6694C68.2467 61.5891 67.881 62.4709 67.2307 63.1213C66.5803 63.7716 65.6985 64.1373 64.7788 64.1382ZM64.7788 58.9368C64.4358 58.9368 64.1005 59.0385 63.8152 59.2291C63.53 59.4197 63.3077 59.6905 63.1765 60.0075C63.0452 60.3244 63.0108 60.6731 63.0778 61.0095C63.1447 61.346 63.3099 61.655 63.5524 61.8976C63.795 62.1401 64.104 62.3053 64.4404 62.3722C64.7769 62.4391 65.1256 62.4048 65.4425 62.2735C65.7594 62.1423 66.0303 61.92 66.2209 61.6347C66.4115 61.3495 66.5132 61.0142 66.5132 60.6712C66.5132 60.2112 66.3305 59.77 66.0052 59.4448C65.6799 59.1195 65.2388 58.9368 64.7788 58.9368Z" fill="#899F87"/>
            <path d="M14.2538 35.9725C14.064 35.9726 13.8794 35.9104 13.7284 35.7955C13.5773 35.6807 13.4681 35.5194 13.4175 35.3365L13.4146 35.3261C13.4117 35.318 13.4091 35.3085 13.4059 35.2972C13.3019 34.9656 12.4841 32.5566 10.3881 31.4145C9.04658 30.6835 7.41627 30.6051 5.54256 31.1769C5.43296 31.2129 5.31729 31.2267 5.2023 31.2174C5.08731 31.2081 4.97533 31.176 4.87291 31.1229C4.7705 31.0698 4.6797 30.9969 4.60584 30.9082C4.53198 30.8196 4.47654 30.7172 4.44277 30.6069C4.409 30.4966 4.39758 30.3806 4.40918 30.2658C4.42077 30.1511 4.45515 30.0398 4.5103 29.9384C4.56545 29.8371 4.64026 29.7478 4.73035 29.6758C4.82044 29.6037 4.924 29.5504 5.03497 29.5188C6.90867 28.9453 8.21466 27.9666 8.91708 26.6097C10.0918 24.3412 9.24054 21.6893 9.23187 21.6627C9.19706 21.5533 9.18435 21.438 9.19446 21.3236C9.20456 21.2092 9.2373 21.0979 9.29076 20.9963C9.34421 20.8946 9.41733 20.8046 9.50586 20.7314C9.5944 20.6583 9.69658 20.6034 9.80648 20.5701C9.91638 20.5367 10.0318 20.5255 10.1461 20.5372C10.2603 20.5488 10.3711 20.583 10.4721 20.6378C10.573 20.6926 10.6621 20.7669 10.734 20.8564C10.806 20.9459 10.8595 21.0488 10.8914 21.1592C10.8983 21.184 11.6773 23.8578 13.9208 25.0803C15.262 25.8105 16.8923 25.8897 18.7657 25.3173C18.8752 25.2816 18.9908 25.2681 19.1055 25.2776C19.2203 25.2871 19.3321 25.3193 19.4343 25.3724C19.5364 25.4255 19.627 25.4984 19.7007 25.587C19.7744 25.6755 19.8298 25.7778 19.8635 25.8879C19.8972 25.998 19.9087 26.1137 19.8972 26.2283C19.8857 26.3429 19.8515 26.4541 19.7966 26.5553C19.7417 26.6566 19.6672 26.7459 19.5774 26.818C19.4876 26.8901 19.3843 26.9436 19.2736 26.9754C17.3999 27.5492 16.0939 28.5279 15.3915 29.8848C14.2853 32.0213 14.9758 34.4977 15.0675 34.8012L15.0709 34.8127L15.077 34.8318C15.1203 34.9622 15.132 35.1009 15.1112 35.2367C15.0904 35.3725 15.0376 35.5014 14.9572 35.6128C14.8768 35.7242 14.7711 35.8148 14.6488 35.8774C14.5265 35.9399 14.3911 35.9725 14.2538 35.9725ZM9.1411 29.1708C9.87459 29.2968 10.582 29.544 11.2342 29.9024C11.9423 30.2953 12.58 30.8033 13.1212 31.4056C13.2325 30.6035 13.4767 29.8255 13.8439 29.1037C14.1839 28.4417 14.6315 27.8407 15.1686 27.3254C14.4348 27.1993 13.727 26.952 13.0744 26.5935C12.3661 26.2008 11.7281 25.6928 11.1868 25.0904C11.0755 25.8926 10.8312 26.6706 10.4641 27.3925C10.1245 28.0544 9.67746 28.6553 9.1411 29.1708Z" fill="#899F87"/>
            <path d="M52.5663 36.192C52.4396 36.1921 52.3144 36.1645 52.1995 36.111C52.0846 36.0575 51.9828 35.9795 51.9013 35.8824C51.8199 35.7854 51.7606 35.6716 51.7278 35.5492C51.695 35.4268 51.6895 35.2987 51.7115 35.1739C51.7138 35.1595 52.0006 33.3696 51.0369 32.0408C50.4639 31.2516 49.5355 30.7562 48.2775 30.5683C48.0721 30.5376 47.8846 30.4343 47.749 30.2772C47.6134 30.12 47.5386 29.9194 47.5383 29.7118C47.5384 29.6686 47.5416 29.6254 47.5479 29.5826C47.5647 29.4699 47.6035 29.3617 47.6622 29.2641C47.7208 29.1664 47.7982 29.0813 47.8897 29.0135C47.9813 28.9458 48.0853 28.8967 48.1958 28.8692C48.3063 28.8416 48.4212 28.8361 48.5339 28.853C49.7971 29.0409 50.8334 28.8365 51.613 28.2434C52.9103 27.2562 53.1615 25.4684 53.1635 25.4519C53.1803 25.3392 53.2192 25.231 53.2779 25.1334C53.3366 25.0358 53.4139 24.9507 53.5055 24.8829C53.5971 24.8152 53.7011 24.7662 53.8116 24.7386C53.9221 24.7111 54.037 24.7056 54.1496 24.7224C54.2623 24.7393 54.3705 24.7782 54.4681 24.8369C54.5657 24.8955 54.6508 24.9729 54.7186 25.0644C54.7863 25.156 54.8354 25.26 54.8629 25.3705C54.8904 25.4811 54.8959 25.5959 54.8791 25.7086C54.8765 25.7227 54.59 27.5123 55.5537 28.8411C56.1264 29.6303 57.0548 30.1257 58.3128 30.3136C58.5182 30.3442 58.7058 30.4475 58.8415 30.6047C58.9772 30.7618 59.052 30.9625 59.0523 31.1701C59.0523 31.2134 59.049 31.2566 59.0424 31.2993C59.0085 31.5268 58.8855 31.7314 58.7007 31.8683C58.5158 32.0051 58.2842 32.0629 58.0567 32.0289C56.7932 31.8402 55.757 32.0454 54.9774 32.6386C53.6803 33.6257 53.4291 35.4136 53.4271 35.43C53.4014 35.6403 53.2997 35.8338 53.1411 35.9742C52.9825 36.1145 52.7781 36.192 52.5663 36.192ZM51.6893 30.2009C51.9751 30.4499 52.231 30.7312 52.4521 31.0392C52.6924 31.3744 52.8913 31.7375 53.0444 32.1206C53.303 31.7991 53.5994 31.51 53.9272 31.2594C54.2283 31.0295 54.5552 30.8355 54.9013 30.6813C54.6155 30.4323 54.3596 30.151 54.1385 29.843C53.8981 29.5078 53.6991 29.1447 53.5459 28.7617C53.2875 29.0832 52.9912 29.3723 52.6634 29.6228C52.3622 29.8526 52.0353 30.0466 51.6893 30.2009Z" fill="#899F87"/>
            <path d="M36.5086 16.5294C36.3875 16.5295 36.2677 16.5043 36.1569 16.4553C36.0461 16.4063 35.9468 16.3346 35.8654 16.2449C35.784 16.1552 35.7223 16.0495 35.6843 15.9345C35.6463 15.8195 35.6328 15.6978 35.6446 15.5772V15.5691C35.6446 15.5599 35.6446 15.5497 35.6469 15.5402C35.6683 15.2069 35.7669 12.7817 34.2953 11.047C33.3535 9.93673 31.9302 9.30599 30.0649 9.17273C29.8462 9.1571 29.6417 9.05927 29.4923 8.89892C29.3428 8.73858 29.2597 8.5276 29.2595 8.30844C29.2595 8.28762 29.2595 8.26681 29.2615 8.24571C29.2691 8.13194 29.2992 8.02079 29.35 7.9187C29.4007 7.81661 29.4713 7.7256 29.5574 7.65093C29.6436 7.57626 29.7437 7.51941 29.852 7.48367C29.9603 7.44793 30.0746 7.434 30.1883 7.44269C32.0545 7.57682 33.5527 7.15363 34.6433 6.18961C36.3592 4.67116 36.598 2.23321 36.6214 1.92594V1.91033V1.89414C36.6381 1.66472 36.7452 1.45134 36.9193 1.30094C37.0055 1.22646 37.1055 1.16969 37.2136 1.13387C37.3217 1.09804 37.4358 1.08386 37.5494 1.09214C37.663 1.10041 37.7738 1.13098 37.8756 1.1821C37.9774 1.23321 38.0681 1.30388 38.1426 1.39005C38.2171 1.47623 38.2738 1.57623 38.3097 1.68435C38.3455 1.79246 38.3597 1.90658 38.3514 2.02017V2.02827C38.3514 2.03752 38.3514 2.04763 38.3491 2.05862C38.3277 2.39219 38.2291 4.81714 39.7007 6.5518C40.6425 7.66209 42.0659 8.29283 43.9312 8.42637C44.1497 8.442 44.3543 8.53979 44.5037 8.70008C44.6531 8.86037 44.7363 9.07127 44.7365 9.29038C44.7365 9.3112 44.7365 9.33201 44.7345 9.35311C44.7266 9.46679 44.6964 9.5778 44.6455 9.67976C44.5947 9.78172 44.5241 9.87262 44.438 9.94724C44.3519 10.0219 44.2519 10.0787 44.1437 10.1146C44.0356 10.1504 43.9214 10.1645 43.8077 10.1561C41.9416 10.0232 40.4434 10.4452 39.3527 11.4092C37.6368 12.9277 37.3981 15.3656 37.3747 15.6729V15.6885V15.7047C37.3632 15.9268 37.267 16.1361 37.1059 16.2896C36.9448 16.443 36.7311 16.5288 36.5086 16.5294ZM34.06 8.58767C34.6528 8.95046 35.1832 9.40649 35.6307 9.93817C36.1158 10.5185 36.5035 11.1737 36.7789 11.8781C37.152 11.2201 37.6291 10.6269 38.1918 10.1214C38.7107 9.65902 39.3006 9.28315 39.9389 9.00826C39.3461 8.64546 38.8158 8.18944 38.3682 7.65776C37.8832 7.07741 37.4954 6.42228 37.22 5.71786C36.8469 6.37583 36.3698 6.96905 35.8071 7.47449C35.2884 7.93686 34.6987 8.31273 34.0606 8.58767H34.06Z" fill="#899F87"/>
            <path d="M14.6688 12.4556H12.915C12.685 12.4556 12.4645 12.3642 12.3018 12.2016C12.1392 12.0389 12.0479 11.8184 12.0479 11.5884C12.0479 11.3584 12.1392 11.1378 12.3018 10.9752C12.4645 10.8126 12.685 10.7212 12.915 10.7212H14.6688C14.8988 10.7212 15.1193 10.8126 15.282 10.9752C15.4446 11.1378 15.536 11.3584 15.536 11.5884C15.536 11.8184 15.4446 12.0389 15.282 12.2016C15.1193 12.3642 14.8988 12.4556 14.6688 12.4556Z" fill="#899F87"/>
            <path d="M16.4478 15.9853C16.2178 15.9853 15.9972 15.8939 15.8346 15.7313C15.6719 15.5687 15.5806 15.3481 15.5806 15.1181V13.3652C15.5806 13.1352 15.6719 12.9147 15.8346 12.752C15.9972 12.5894 16.2178 12.498 16.4478 12.498C16.6777 12.498 16.8983 12.5894 17.0609 12.752C17.2236 12.9147 17.3149 13.1352 17.3149 13.3652V15.1181C17.3149 15.3481 17.2236 15.5687 17.0609 15.7313C16.8983 15.8939 16.6777 15.9853 16.4478 15.9853Z" fill="#899F87"/>
            <path d="M19.9769 12.4551H18.2231C17.9932 12.4551 17.7726 12.3637 17.61 12.2011C17.4473 12.0385 17.356 11.8179 17.356 11.5879C17.356 11.3579 17.4473 11.1373 17.61 10.9747C17.7726 10.8121 17.9932 10.7207 18.2231 10.7207H19.9769C20.2069 10.7207 20.4275 10.8121 20.5901 10.9747C20.7527 11.1373 20.8441 11.3579 20.8441 11.5879C20.8441 11.8179 20.7527 12.0385 20.5901 12.2011C20.4275 12.3637 20.2069 12.4551 19.9769 12.4551Z" fill="#899F87"/>
            <path d="M16.4456 10.6778C16.2156 10.6778 15.995 10.5864 15.8324 10.4238C15.6697 10.2611 15.5784 10.0406 15.5784 9.81058V8.05713C15.5784 7.82714 15.6697 7.60656 15.8324 7.44393C15.995 7.28131 16.2156 7.18994 16.4456 7.18994C16.6755 7.18994 16.8961 7.28131 17.0588 7.44393C17.2214 7.60656 17.3127 7.82714 17.3127 8.05713V9.81058C17.3127 10.0406 17.2214 10.2611 17.0588 10.4238C16.8961 10.5864 16.6755 10.6778 16.4456 10.6778Z" fill="#899F87"/>
            <path d="M62.2665 18.4023H60.5801C60.3501 18.4023 60.1295 18.311 59.9669 18.1484C59.8043 17.9857 59.7129 17.7651 59.7129 17.5352C59.7129 17.3052 59.8043 17.0846 59.9669 16.922C60.1295 16.7593 60.3501 16.668 60.5801 16.668H62.2665C62.4965 16.668 62.717 16.7593 62.8797 16.922C63.0423 17.0846 63.1337 17.3052 63.1337 17.5352C63.1337 17.7651 63.0423 17.9857 62.8797 18.1484C62.717 18.311 62.4965 18.4023 62.2665 18.4023Z" fill="#899F87"/>
            <path d="M63.9756 21.7975C63.7456 21.7975 63.525 21.7062 63.3624 21.5435C63.1998 21.3809 63.1084 21.1603 63.1084 20.9303V19.2437C63.1084 19.0137 63.1998 18.7931 63.3624 18.6305C63.525 18.4678 63.7456 18.3765 63.9756 18.3765C64.2056 18.3765 64.4262 18.4678 64.5888 18.6305C64.7514 18.7931 64.8428 19.0137 64.8428 19.2437V20.9303C64.8428 21.1603 64.7514 21.3809 64.5888 21.5435C64.4262 21.7062 64.2056 21.7975 63.9756 21.7975Z" fill="#899F87"/>
            <path d="M67.3708 18.4019H65.6841C65.4541 18.4019 65.2335 18.3105 65.0709 18.1479C64.9083 17.9852 64.8169 17.7647 64.8169 17.5347C64.8169 17.3047 64.9083 17.0841 65.0709 16.9215C65.2335 16.7588 65.4541 16.6675 65.6841 16.6675H67.3708C67.6008 16.6675 67.8213 16.7588 67.984 16.9215C68.1466 17.0841 68.2379 17.3047 68.2379 17.5347C68.2379 17.7647 68.1466 17.9852 67.984 18.1479C67.8213 18.3105 67.6008 18.4019 67.3708 18.4019Z" fill="#899F87"/>
            <path d="M63.9749 16.6932C63.7449 16.6932 63.5243 16.6019 63.3617 16.4392C63.199 16.2766 63.1077 16.056 63.1077 15.826V14.1396C63.1077 13.9097 63.199 13.6891 63.3617 13.5265C63.5243 13.3638 63.7449 13.2725 63.9749 13.2725C64.2048 13.2725 64.4254 13.3638 64.588 13.5265C64.7507 13.6891 64.842 13.9097 64.842 14.1396V15.826C64.842 16.056 64.7507 16.2766 64.588 16.4392C64.4254 16.6019 64.2048 16.6932 63.9749 16.6932Z" fill="#899F87"/>
        </svg>

    </symbol>
</svg>
